<?xml version="1.0" encoding="UTF-8"?>
<svg version="1.1" xmlns="http://www.w3.org/2000/svg" width="250" height="150">
<path d="M0 0 C82.5 0 165 0 250 0 C250 49.5 250 99 250 150 C167.5 150 85 150 0 150 C0 100.5 0 51 0 0 Z " fill="#FEFEFE" transform="translate(0,0)"/>
<path d="M0 0 C12.72695081 10.94851227 22.0029959 27.04107746 23.43017578 43.94677734 C24.5582222 63.11548013 19.99131473 80.62052633 7.36328125 95.5078125 C-5.00080799 108.99175456 -21.31870531 117.81889495 -39.72265625 119.00390625 C-58.20181452 119.64973929 -75.31118277 113.35396984 -89.2890625 101.1796875 C-102.80481428 88.17882151 -110.52146187 70.93379303 -111 52.25 C-110.82423326 33.85308149 -103.73995328 16.99644156 -91.125 3.625 C-65.24126441 -21.04482363 -27.81285994 -21.32319262 0 0 Z " fill="#3F6573" transform="translate(168.75,23.1875)"/>
<path d="M0 0 C0.75603516 -0.00563965 1.51207031 -0.0112793 2.29101562 -0.01708984 C14.03814578 0.133711 24.30446961 4.36102464 32.9375 12.3125 C32.18726563 12.90611328 32.18726563 12.90611328 31.421875 13.51171875 C29.71535095 15.21621564 29.71535095 15.21621564 29.828125 17.58203125 C29.94671875 18.42121094 30.0653125 19.26039062 30.1875 20.125 C30.29578125 20.95644531 30.4040625 21.78789063 30.515625 22.64453125 C30.80856884 24.49712982 31.12541701 26.34604353 31.4609375 28.19140625 C33.00006343 38.27141951 32.50896252 46.80290632 28.03125 56.01953125 C26.79398989 58.18994681 26.79398989 58.18994681 26.9375 60.3125 C27.5975 60.6425 28.2575 60.9725 28.9375 61.3125 C28.9375 61.9725 28.9375 62.6325 28.9375 63.3125 C23.78578377 63.40288099 19.01836796 63.15931133 13.9375 62.3125 C12.74462589 58.43565913 11.9375 55.39628077 11.9375 51.3125 C9.9575 51.8075 9.9575 51.8075 7.9375 52.3125 C7.9375 51.6525 7.9375 50.9925 7.9375 50.3125 C6.6175 50.3125 5.2975 50.3125 3.9375 50.3125 C3.9375 47.6725 3.9375 45.0325 3.9375 42.3125 C4.5975 41.9825 5.2575 41.6525 5.9375 41.3125 C5.1125 40.755625 4.2875 40.19875 3.4375 39.625 C0.9375 37.3125 0.9375 37.3125 0.8125 34.6875 C0.85375 33.90375 0.895 33.12 0.9375 32.3125 C-0.0525 31.6525 -1.0425 30.9925 -2.0625 30.3125 C-0.125 28.25 -0.125 28.25 2.9375 26.3125 C6.01812179 26.25583304 8.92215651 26.70811743 11.9375 27.3125 C11.15375 27.10625 10.37 26.9 9.5625 26.6875 C6.9375 25.3125 6.9375 25.3125 5.8125 22.375 C5.52375 21.364375 5.235 20.35375 4.9375 19.3125 C3.43863129 17.47560524 3.43863129 17.47560524 1.9375 16.3125 C1.4425 16.8075 1.4425 16.8075 0.9375 17.3125 C-0.53331904 17.68092434 -2.01457147 18.00828424 -3.5 18.3125 C-5.90579145 18.80678781 -7.86334246 19.21292123 -10.0625 20.3125 C-10.0625 20.9725 -10.0625 21.6325 -10.0625 22.3125 C-11.0215625 22.745625 -11.0215625 22.745625 -12 23.1875 C-14.21456079 24.14073451 -14.21456079 24.14073451 -15.0625 26.3125 C-15.7225 26.3125 -16.3825 26.3125 -17.0625 26.3125 C-17.1553125 27.240625 -17.1553125 27.240625 -17.25 28.1875 C-17.518125 28.88875 -17.78625 29.59 -18.0625 30.3125 C-19.72916667 30.97916667 -21.39583333 31.64583333 -23.0625 32.3125 C-23.79573796 34.32758358 -23.79573796 34.32758358 -24.0625 36.3125 C-25.0525 36.8075 -25.0525 36.8075 -26.0625 37.3125 C-26.2790625 38.240625 -26.2790625 38.240625 -26.5 39.1875 C-27.16975008 41.71766698 -28.24308111 42.49308111 -30.0625 44.3125 C-30.77697643 46.41582891 -30.77697643 46.41582891 -31.0625 48.3125 C-31.7225 48.3125 -32.3825 48.3125 -33.0625 48.3125 C-32.7325 49.3025 -32.4025 50.2925 -32.0625 51.3125 C-32.5575 51.8075 -32.5575 51.8075 -33.0625 52.3125 C-32.4025 52.9725 -31.7425 53.6325 -31.0625 54.3125 C-31.4375 56.9375 -31.4375 56.9375 -32.0625 59.3125 C-31.629375 58.879375 -31.19625 58.44625 -30.75 58 C-29.1875 56.4375 -27.625 54.875 -26.0625 53.3125 C-27.0525 56.6125 -28.0425 59.9125 -29.0625 63.3125 C-28.4025 63.9725 -27.7425 64.6325 -27.0625 65.3125 C-26.959375 66.09625 -26.85625 66.88 -26.75 67.6875 C-25.8089628 71.28055114 -24.09180173 72.26948255 -21.0625 74.3125 C-20.32 74.663125 -19.5775 75.01375 -18.8125 75.375 C-17.0625 76.3125 -17.0625 76.3125 -16.0625 79.3125 C-15.4025 79.3125 -14.7425 79.3125 -14.0625 79.3125 C-13.7325 78.6525 -13.4025 77.9925 -13.0625 77.3125 C-11.94875 78.55 -11.94875 78.55 -10.8125 79.8125 C-8.18862615 82.76094853 -8.18862615 82.76094853 -4.0625 82.3125 C-4.0625 83.9625 -4.0625 85.6125 -4.0625 87.3125 C-3.0725 85.8275 -3.0725 85.8275 -2.0625 84.3125 C-1.0725 84.8075 -1.0725 84.8075 -0.0625 85.3125 C0.4325 83.8275 0.4325 83.8275 0.9375 82.3125 C2.6449998 83.59312485 4.31123596 84.93017557 5.9375 86.3125 C5.9375 86.9725 5.9375 87.6325 5.9375 88.3125 C8.35010643 89.88997343 9.71594156 90.32280504 12.625 90.1875 C16.33052031 89.20868331 19.55495722 87.74606702 22.984375 86.0546875 C23.62890625 85.80976562 24.2734375 85.56484375 24.9375 85.3125 C25.5975 85.6425 26.2575 85.9725 26.9375 86.3125 C13.03430568 93.79340659 1.32021008 96.62264573 -14.21875 92.27734375 C-25.70661561 88.37967506 -35.04903021 80.34724448 -40.8828125 69.734375 C-46.41377404 58.37942085 -48.63755455 44.63682855 -44.4375 32.4375 C-38.78535704 19.255754 -30.94092842 9.84326702 -18.0625 3.3125 C-17.40121094 2.97089844 -16.73992187 2.62929688 -16.05859375 2.27734375 C-10.83606609 0.07999845 -5.58397842 0.03969115 0 0 Z " fill="#F6F6D6" transform="translate(125.0625,26.6875)"/>
<path d="M0 0 C16.02486346 12.00159987 27.60161563 27.60458497 31.12890625 47.625 C33.62167328 68.38110095 29.85301356 86.9952902 17.75390625 104.1875 C16.45125107 105.83719459 15.11964542 107.46463915 13.75390625 109.0625 C13.16351563 109.76375 12.573125 110.465 11.96484375 111.1875 C1.68790172 122.38280706 -15.73397889 132.30142245 -31.15600586 133.23950195 C-34.83194924 133.30639543 -38.50714069 133.3474679 -42.18359375 133.375 C-43.43978516 133.40400391 -44.69597656 133.43300781 -45.99023438 133.46289062 C-63.70535991 133.58178408 -79.00237677 126.66024833 -92.24609375 115.0625 C-93.24189453 114.20785156 -93.24189453 114.20785156 -94.2578125 113.3359375 C-103.02280735 105.24252378 -109.57307822 94.35980534 -113.24609375 83.0625 C-113.54257813 82.30839844 -113.8390625 81.55429688 -114.14453125 80.77734375 C-119.92746254 64.03867567 -116.70096978 45.21681116 -109.63671875 29.4765625 C-99.60861852 9.74236525 -83.33438472 -3.6850751 -62.5 -10.88671875 C-41.69237364 -16.59447112 -17.78231642 -12.01018169 0 0 Z M-92.24609375 16.0625 C-105.88102969 32.3606872 -110.57605024 49.8011743 -109.04296875 70.8515625 C-107.33660679 83.12994966 -101.40429967 94.86772203 -93.24609375 104.0625 C-92.81167969 104.64902344 -92.37726563 105.23554687 -91.9296875 105.83984375 C-82.1118731 118.76419047 -64.80255097 125.75249243 -49.24609375 128.0625 C-41.32878063 128.60970091 -33.85509035 128.36228308 -26.24609375 126.0625 C-24.86357422 125.67771484 -24.86357422 125.67771484 -23.453125 125.28515625 C-4.65381929 119.61861261 9.15836391 107.44125998 18.50390625 90.3125 C25.34766278 75.53462573 27.6554407 57.89226914 22.91796875 42.0859375 C15.65433803 23.2199973 4.85161458 8.74164748 -13.74609375 -0.3125 C-41.45391961 -12.08914381 -71.8339513 -6.20529176 -92.24609375 16.0625 Z " fill="#F8F7F8" transform="translate(167.24609375,13.9375)"/>
<path d="M0 0 C5.78461538 4.30769231 5.78461538 4.30769231 6.875 7.8125 C6.91625 8.534375 6.9575 9.25625 7 10 C8.98 10.66 10.96 11.32 13 12 C13 12.33 13 12.66 13 13 C12.25234375 12.89300781 11.5046875 12.78601562 10.734375 12.67578125 C9.74953125 12.55589844 8.7646875 12.43601562 7.75 12.3125 C6.28820312 12.12107422 6.28820312 12.12107422 4.796875 11.92578125 C1.51727269 12.0128098 0.36689329 12.80780598 -2 15 C-1.01 15.66 -0.02 16.32 1 17 C0.979375 17.804375 0.95875 18.60875 0.9375 19.4375 C0.72500509 22.07221822 0.72500509 22.07221822 2.5625 23.75 C5.67613658 25.34673671 8.53885353 25.66719746 12 26 C12 26.33 12 26.66 12 27 C9.03 27 6.06 27 3 27 C3.495 28.485 3.495 28.485 4 30 C3.5625 32.6875 3.5625 32.6875 3 35 C5.64 35.33 8.28 35.66 11 36 C13.84789792 44.6666246 11.97278408 50.10307817 8 58 C7.32650839 59.66392045 6.6590841 61.33032028 6 63 C5.67 63.66 5.34 64.32 5 65 C5.99 65.495 5.99 65.495 7 66 C6.34 66 5.68 66 5 66 C5.33 67.32 5.66 68.64 6 70 C3 70 3 70 0 68 C-0.33 68.66 -0.66 69.32 -1 70 C-1.66 70 -2.32 70 -3 70 C-3.66 72.31 -4.32 74.62 -5 77 C-5.33 77 -5.66 77 -6 77 C-6 74.03 -6 71.06 -6 68 C-7.32 67.67 -8.64 67.34 -10 67 C-12.25 64.9375 -12.25 64.9375 -14 63 C-15.485 63.495 -15.485 63.495 -17 64 C-17.391875 63.360625 -17.78375 62.72125 -18.1875 62.0625 C-20.38472296 59.56221181 -21.75791433 59.35049575 -25 59 C-25 58.01 -25 57.02 -25 56 C-25.99 55.67 -26.98 55.34 -28 55 C-28.12375 54.21625 -28.2475 53.4325 -28.375 52.625 C-28.79117993 49.85942178 -28.79117993 49.85942178 -31 48 C-30.34 45.69 -29.68 43.38 -29 41 C-29.99 42.32 -30.98 43.64 -32 45 C-32.66 44.67 -33.32 44.34 -34 44 C-33.79375 43.21625 -33.5875 42.4325 -33.375 41.625 C-33.25125 40.75875 -33.1275 39.8925 -33 39 C-33.66 38.34 -34.32 37.68 -35 37 C-34.625 34.875 -34.625 34.875 -34 33 C-33.34 33 -32.68 33 -32 33 C-31.896875 32.2575 -31.79375 31.515 -31.6875 30.75 C-30.94909194 27.79636774 -29.8776808 26.347101 -28 24 C-27.67 23.01 -27.34 22.02 -27 21 C-26.34 21 -25.68 21 -25 21 C-24.67 19.35 -24.34 17.7 -24 16 C-22.35 15.67 -20.7 15.34 -19 15 C-18.67 13.68 -18.34 12.36 -18 11 C-17.34 11 -16.68 11 -16 11 C-15.34 9.68 -14.68 8.36 -14 7 C-13.01 7 -12.02 7 -11 7 C-11.33 6.01 -11.66 5.02 -12 4 C-7.8794254 2.00214565 -4.54805635 1.82164485 0 2 C0 1.34 0 0.68 0 0 Z " fill="#8F3A40" transform="translate(126,42)"/>
<path d="M0 0 C4.2614327 0.57586928 5.87978335 2.63075132 8.48046875 5.84375 C16.23515691 16.84783191 17.8983899 27.76278627 17 41 C14.97875328 52.48004974 9.01253566 62.98279198 0.18359375 70.55859375 C-2.54978686 72.36291834 -5.31446636 73.4621399 -8.375 74.625 C-9.47585937 75.05039063 -10.57671875 75.47578125 -11.7109375 75.9140625 C-19.79171689 78.58206329 -19.79171689 78.58206329 -23.3515625 76.8671875 C-25.99784713 73.86973714 -25.42379235 71.25047693 -25.2578125 67.421875 C-24.9540258 64.56812119 -24.33870149 62.54353283 -23 60 C-19.6880466 53.79130044 -19.6880466 53.79130044 -18 47 C-17.67 47.66 -17.34 48.32 -17 49 C-14.45058627 49.31241371 -11.99638487 49.51303421 -9.4375 49.625 C-8.72658203 49.66367188 -8.01566406 49.70234375 -7.28320312 49.7421875 C-5.52257575 49.83671783 -3.76132272 49.91945817 -2 50 C-2 49.34 -2 48.68 -2 48 C-3.485 47.505 -3.485 47.505 -5 47 C-4.56020302 43.5915734 -3.53412763 41.1095089 -1.9375 38.125 C2.34202724 28.75672583 0.22117138 17.48255719 -1.66015625 7.70703125 C-1.99111192 5.07079812 -1.90414474 3.47360353 -1 1 C-0.67 0.67 -0.34 0.34 0 0 Z " fill="#7FBDAE" transform="translate(156,40)"/>
<path d="M0 0 C2.83359844 -0.05449228 5.66612485 -0.09390733 8.5 -0.125 C9.29148437 -0.14175781 10.08296875 -0.15851562 10.8984375 -0.17578125 C22.86664562 -0.27388132 33.19554073 3.89062962 42 12 C41.49984375 12.39574219 40.9996875 12.79148437 40.484375 13.19921875 C38.77785095 14.90371564 38.77785095 14.90371564 38.890625 17.26953125 C39.00921875 18.10871094 39.1278125 18.94789062 39.25 19.8125 C39.35828125 20.64394531 39.4665625 21.47539063 39.578125 22.33203125 C39.87106884 24.18462982 40.18791701 26.03354353 40.5234375 27.87890625 C42.06256343 37.95891951 41.57146252 46.49040632 37.09375 55.70703125 C35.85648989 57.87744681 35.85648989 57.87744681 36 60 C36.99 60.495 36.99 60.495 38 61 C38 61.66 38 62.32 38 63 C32.84828377 63.09038099 28.08086796 62.84681133 23 62 C21.80712589 58.12315913 21 55.08378077 21 51 C19.02 51.495 19.02 51.495 17 52 C17 51.34 17 50.68 17 50 C15.68 50 14.36 50 13 50 C13 47.36 13 44.72 13 42 C13.99 41.505 13.99 41.505 15 41 C14.175 40.443125 13.35 39.88625 12.5 39.3125 C10 37 10 37 9.875 34.375 C9.936875 33.199375 9.936875 33.199375 10 32 C9.01 31.34 8.02 30.68 7 30 C9.125 27.9375 9.125 27.9375 12 26 C14.75 26.28125 14.75 26.28125 18 27 C19.13179687 27.24878906 20.26359375 27.49757813 21.4296875 27.75390625 C22.56664062 28.02074219 23.70359375 28.28757812 24.875 28.5625 C26.02742188 28.83191406 27.17984375 29.10132812 28.3671875 29.37890625 C29.23601562 29.58386719 30.10484375 29.78882812 31 30 C29.68 27.36 28.36 24.72 27 22 C27.99 21.34 28.98 20.68 30 20 C27.69 20.33 25.38 20.66 23 21 C21.60869565 11.7826087 21.60869565 11.7826087 23 9 C22.1646875 8.9071875 22.1646875 8.9071875 21.3125 8.8125 C18.05012827 7.66626128 16.31332126 5.50609803 14 3 C14.33 2.67 14.66 2.34 15 2 C10.05 1.67 5.1 1.34 0 1 C0 0.67 0 0.34 0 0 Z " fill="#88BDE6" transform="translate(116,27)"/>
<path d="M0 0 C0.33 1.32 0.66 2.64 1 4 C2.7634375 3.814375 2.7634375 3.814375 4.5625 3.625 C9.27516245 3.57459719 11.45827243 5.51333413 14.75 8.6875 C15.1625 9.120625 15.575 9.55375 16 10 C15.01 12.31 14.02 14.62 13 17 C12.34 17 11.68 17 11 17 C11.33 17.99 11.66 18.98 12 20 C11.67 20.33 11.34 20.66 11 21 C11.66 21.66 12.32 22.32 13 23 C12.625 25.625 12.625 25.625 12 28 C12.433125 27.566875 12.86625 27.13375 13.3125 26.6875 C14.875 25.125 16.4375 23.5625 18 22 C17.01 25.3 16.02 28.6 15 32 C15.66 32.66 16.32 33.32 17 34 C17.103125 34.78375 17.20625 35.5675 17.3125 36.375 C18.2535372 39.96805114 19.97069827 40.95698255 23 43 C24.11375 43.5259375 24.11375 43.5259375 25.25 44.0625 C27 45 27 45 28 48 C28.66 48 29.32 48 30 48 C30.495 47.01 30.495 47.01 31 46 C31.7425 46.825 32.485 47.65 33.25 48.5 C35.87387385 51.44844853 35.87387385 51.44844853 40 51 C40 52.65 40 54.3 40 56 C40.66 55.01 41.32 54.02 42 53 C42.99 53.495 42.99 53.495 44 54 C44.33 53.01 44.66 52.02 45 51 C46.7074998 52.28062485 48.37373596 53.61767557 50 55 C50 55.66 50 56.32 50 57 C52.41260643 58.57747343 53.77844156 59.01030504 56.6875 58.875 C60.39302031 57.89618331 63.61745722 56.43356702 67.046875 54.7421875 C67.69140625 54.49726562 68.3359375 54.25234375 69 54 C69.66 54.33 70.32 54.66 71 55 C57.09680568 62.48090659 45.38271008 65.31014573 29.84375 60.96484375 C18.35588439 57.06717506 9.01346979 49.03474448 3.1796875 38.421875 C-0.57714944 30.7091634 -2.17948822 23.69760034 -2.1875 15.125 C-2.19974609 14.44308594 -2.21199219 13.76117188 -2.22460938 13.05859375 C-2.23808054 8.34368481 -1.47921101 4.47855981 0 0 Z " fill="#D6A55B" transform="translate(81,58)"/>
<path d="M0 0 C16.02486346 12.00159987 27.60161563 27.60458497 31.12890625 47.625 C33.62167328 68.38110095 29.85301356 86.9952902 17.75390625 104.1875 C16.45125107 105.83719459 15.11964542 107.46463915 13.75390625 109.0625 C13.16351563 109.76375 12.573125 110.465 11.96484375 111.1875 C1.68790172 122.38280706 -15.73397889 132.30142245 -31.15600586 133.23950195 C-34.83194924 133.30639543 -38.50714069 133.3474679 -42.18359375 133.375 C-43.43978516 133.40400391 -44.69597656 133.43300781 -45.99023438 133.46289062 C-63.70535991 133.58178408 -79.00237677 126.66024833 -92.24609375 115.0625 C-93.24189453 114.20785156 -93.24189453 114.20785156 -94.2578125 113.3359375 C-103.02280735 105.24252378 -109.57307822 94.35980534 -113.24609375 83.0625 C-113.54257813 82.30839844 -113.8390625 81.55429688 -114.14453125 80.77734375 C-119.92746254 64.03867567 -116.70096978 45.21681116 -109.63671875 29.4765625 C-99.60861852 9.74236525 -83.33438472 -3.6850751 -62.5 -10.88671875 C-41.69237364 -16.59447112 -17.78231642 -12.01018169 0 0 Z M-96.44921875 12.43359375 C-108.51672679 26.82709093 -114.6439432 41.71166234 -114.74609375 60.375 C-114.7524585 61.36467773 -114.75882324 62.35435547 -114.76538086 63.37402344 C-114.50038128 78.7209555 -108.68068443 93.07641625 -99.24609375 105.0625 C-98.37017578 106.20332031 -98.37017578 106.20332031 -97.4765625 107.3671875 C-87.54769203 119.44905515 -72.5353004 128.05779354 -57.24609375 131.0625 C-52.44612822 131.49152408 -47.68781322 131.52771125 -42.87109375 131.5 C-41.64648438 131.51998047 -40.421875 131.53996094 -39.16015625 131.56054688 C-20.12752546 131.55046603 -3.90768506 123.21198044 9.87890625 110.4375 C23.66093297 95.97627689 30.16222572 77.46572266 30.12475586 57.68383789 C29.58431436 37.23977265 19.96275586 20.51208331 5.54296875 6.484375 C-3.25667478 -1.15677205 -13.17943177 -5.58766482 -24.24609375 -8.9375 C-24.98859375 -9.18371094 -25.73109375 -9.42992187 -26.49609375 -9.68359375 C-51.09106792 -16.6489673 -79.61277452 -5.6864801 -96.44921875 12.43359375 Z " fill="#CAC1CC" transform="translate(167.24609375,13.9375)"/>
<path d="M0 0 C0 0.33 0 0.66 0 1 C-4.455 1.495 -4.455 1.495 -9 2 C-8.01 2 -7.02 2 -6 2 C-5.01 2.33 -4.02 2.66 -3 3 C-3 3.99 -3 4.98 -3 6 C-4.8871875 6.12375 -4.8871875 6.12375 -6.8125 6.25 C-10.33811212 6.66557143 -10.33811212 6.66557143 -13 9.0625 C-13.33 9.701875 -13.66 10.34125 -14 11 C-13.29875 10.29875 -12.5975 9.5975 -11.875 8.875 C-10.451875 7.946875 -10.451875 7.946875 -9 7 C-5.6875 7.75 -5.6875 7.75 -3 9 C-3 9.99 -3 10.98 -3 12 C-3.66 12 -4.32 12 -5 12 C-5 12.99 -5 13.98 -5 15 C-5.66 15 -6.32 15 -7 15 C-8.95088223 20.61854082 -10.63172347 26.21113776 -12 32 C-13.32 31.67 -14.64 31.34 -16 31 C-16 30.34 -16 29.68 -16 29 C-19.02010463 31.72838998 -20.32193259 34.58239665 -21.9375 38.2578125 C-23 40 -23 40 -26 41 C-26.33 40.67 -26.66 40.34 -27 40 C-26.91062197 38.47480724 -26.75462854 36.95318071 -26.5625 35.4375 C-26.46066406 34.61121094 -26.35882813 33.78492188 -26.25390625 32.93359375 C-26.17011719 32.29550781 -26.08632812 31.65742187 -26 31 C-27.32 32.98 -28.64 34.96 -30 37 C-30.66 36.67 -31.32 36.34 -32 36 C-31.79375 35.21625 -31.5875 34.4325 -31.375 33.625 C-31.25125 32.75875 -31.1275 31.8925 -31 31 C-31.66 30.34 -32.32 29.68 -33 29 C-32.625 26.875 -32.625 26.875 -32 25 C-31.34 25 -30.68 25 -30 25 C-29.896875 24.2575 -29.79375 23.515 -29.6875 22.75 C-28.94909194 19.79636774 -27.8776808 18.347101 -26 16 C-25.67 15.01 -25.34 14.02 -25 13 C-24.34 13 -23.68 13 -23 13 C-22.67 11.35 -22.34 9.7 -22 8 C-20.35 7.67 -18.7 7.34 -17 7 C-16.95875 6.401875 -16.9175 5.80375 -16.875 5.1875 C-16 3 -16 3 -13.5625 1.25 C-8.93950307 -0.37210418 -4.84696209 -0.25863236 0 0 Z " fill="#8E3840" transform="translate(124,50)"/>
<path d="M0 0 C1.58167969 0.34998047 1.58167969 0.34998047 3.1953125 0.70703125 C4.6803125 1.02800781 4.6803125 1.02800781 6.1953125 1.35546875 C11.55746752 2.65411567 16.41577835 3.91896966 21.1953125 6.70703125 C20.4453125 13.33203125 20.4453125 13.33203125 18.1953125 16.70703125 C17.2053125 16.70703125 16.2153125 16.70703125 15.1953125 16.70703125 C15.5253125 17.69703125 15.8553125 18.68703125 16.1953125 19.70703125 C16.54351291 21.37065542 16.87935742 23.03698296 17.1953125 24.70703125 C14.83562506 26.8045312 13.64914256 27.67608829 10.4453125 27.89453125 C9.3315625 27.80171875 9.3315625 27.80171875 8.1953125 27.70703125 C8.5253125 26.71703125 8.8553125 25.72703125 9.1953125 24.70703125 C6.8853125 25.03703125 4.5753125 25.36703125 2.1953125 25.70703125 C2.1953125 25.04703125 2.1953125 24.38703125 2.1953125 23.70703125 C0.8753125 23.70703125 -0.4446875 23.70703125 -1.8046875 23.70703125 C-1.8046875 21.06703125 -1.8046875 18.42703125 -1.8046875 15.70703125 C-1.1446875 15.37703125 -0.4846875 15.04703125 0.1953125 14.70703125 C-0.6296875 14.15015625 -1.4546875 13.59328125 -2.3046875 13.01953125 C-4.8046875 10.70703125 -4.8046875 10.70703125 -4.9296875 8.08203125 C-4.8884375 7.29828125 -4.8471875 6.51453125 -4.8046875 5.70703125 C-5.7946875 5.04703125 -6.7846875 4.38703125 -7.8046875 3.70703125 C-3.5980879 -0.37584484 -3.5980879 -0.37584484 0 0 Z " fill="#E3C394" transform="translate(130.8046875,53.29296875)"/>
<path d="M0 0 C5.94 0 11.88 0 18 0 C17.67 0.99 17.34 1.98 17 3 C19.18900586 5.1687189 19.18900586 5.1687189 22 7 C24.75124253 6.86850174 24.75124253 6.86850174 27 6 C26.67 6.61875 26.34 7.2375 26 7.875 C24.85806765 9.91018344 24.85806765 9.91018344 25 12 C25 14.66666667 25 17.33333333 25 20 C25.763125 19.649375 26.52625 19.29875 27.3125 18.9375 C30 18 30 18 33 19 C32.01 19.99 31.02 20.98 30 22 C32.02633069 26.32371893 32.02633069 26.32371893 35 30 C29.03077156 28.94985796 22.9187076 27.74354839 18 24 C16.6875 20.9375 16.6875 20.9375 16 18 C14.50113129 16.16310524 14.50113129 16.16310524 13 15 C12.67 15.33 12.34 15.66 12 16 C9.98688551 16.39569108 7.96402792 16.74252191 5.9375 17.0625 C4.83277344 17.23910156 3.72804688 17.41570313 2.58984375 17.59765625 C1.30787109 17.79681641 1.30787109 17.79681641 0 18 C0.61488281 17.29423828 0.61488281 17.29423828 1.2421875 16.57421875 C1.78101562 15.95160156 2.31984375 15.32898437 2.875 14.6875 C3.40867187 14.07261719 3.94234375 13.45773438 4.4921875 12.82421875 C6.1640447 10.86501788 6.1640447 10.86501788 8 8 C6.10244856 5.65026182 6.10244856 5.65026182 2.875 5.875 C1.92625 5.91625 0.9775 5.9575 0 6 C0 4.02 0 2.04 0 0 Z " fill="#D8E4EE" transform="translate(114,28)"/>
<path d="M0 0 C2.40015884 1.72398506 3.65919848 3.60453604 4.81640625 6.3046875 C2.50640625 5.9746875 0.19640625 5.6446875 -2.18359375 5.3046875 C-2.26609375 6.2534375 -2.34859375 7.2021875 -2.43359375 8.1796875 C-3.18359375 11.3046875 -3.18359375 11.3046875 -5.24609375 12.6796875 C-5.88546875 12.8859375 -6.52484375 13.0921875 -7.18359375 13.3046875 C-7.51359375 11.9846875 -7.84359375 10.6646875 -8.18359375 9.3046875 C-9.17359375 9.6346875 -10.16359375 9.9646875 -11.18359375 10.3046875 C-10.52359375 7.9946875 -9.86359375 5.6846875 -9.18359375 3.3046875 C-9.84359375 3.3046875 -10.50359375 3.3046875 -11.18359375 3.3046875 C-11.51359375 4.6246875 -11.84359375 5.9446875 -12.18359375 7.3046875 C-13.17359375 6.9746875 -14.16359375 6.6446875 -15.18359375 6.3046875 C-15.51359375 5.6446875 -15.84359375 4.9846875 -16.18359375 4.3046875 C-16.51359375 5.2946875 -16.84359375 6.2846875 -17.18359375 7.3046875 C-19.49359375 6.9746875 -21.80359375 6.6446875 -24.18359375 6.3046875 C-23.85359375 7.6246875 -23.52359375 8.9446875 -23.18359375 10.3046875 C-28.46359375 9.9746875 -33.74359375 9.6446875 -39.18359375 9.3046875 C-39.18359375 8.9746875 -39.18359375 8.6446875 -39.18359375 8.3046875 C-37.51296875 8.1190625 -37.51296875 8.1190625 -35.80859375 7.9296875 C-32.15255698 7.6581062 -32.15255698 7.6581062 -30.18359375 5.3046875 C-30.14193612 3.30512139 -30.14193612 1.30425361 -30.18359375 -0.6953125 C-29.85359375 -1.3553125 -29.52359375 -2.0153125 -29.18359375 -2.6953125 C-27.53359375 -2.6953125 -25.88359375 -2.6953125 -24.18359375 -2.6953125 C-24.18359375 -1.0453125 -24.18359375 0.6046875 -24.18359375 2.3046875 C-21.38486938 -0.22319257 -19.72586356 -1.89942384 -19.18359375 -5.6953125 C-20.17359375 -6.0253125 -21.16359375 -6.3553125 -22.18359375 -6.6953125 C-15.06383516 -9.25112328 -6.12214174 -3.52652888 0 0 Z " fill="#66806C" transform="translate(161.18359375,17.6953125)"/>
<path d="M0 0 C2.97 0.33 5.94 0.66 9 1 C7.85485202 6.41342681 6.65987191 8.9342948 2 12 C2.33 10.02 2.66 8.04 3 6 C1.35 6 -0.3 6 -2 6 C-1.95875 7.258125 -1.9175 8.51625 -1.875 9.8125 C-1.7609626 13.29064073 -1.94074319 13.91111478 -4 17 C-7.01171875 17.73046875 -7.01171875 17.73046875 -10.6875 18.1875 C-11.88761719 18.34605469 -13.08773437 18.50460938 -14.32421875 18.66796875 C-17.90646554 18.99155109 -21.40548215 19.05998554 -25 19 C-24.34 16.03 -23.68 13.06 -23 10 C-22.34 11.32 -21.68 12.64 -21 14 C-19.35 14 -17.7 14 -16 14 C-16 13.34 -16 12.68 -16 12 C-14.576875 12.5259375 -14.576875 12.5259375 -13.125 13.0625 C-10.12939828 14.35026777 -10.12939828 14.35026777 -8 13 C-8 11.35 -8 9.7 -8 8 C-7.34 8 -6.68 8 -6 8 C-6 9.65 -6 11.3 -6 13 C-5.34 13 -4.68 13 -4 13 C-4.33 10.69 -4.66 8.38 -5 6 C-11.0605857 5.7474756 -16.18288577 6.23409032 -22 8 C-22.33 8.33 -22.66 8.66 -23 9 C-24.99958364 9.04080783 -27.00045254 9.04254356 -29 9 C-29 9.99 -29 10.98 -29 12 C-32.01031744 12.93423645 -32.86650268 13.04449911 -36 12 C-36.0625 9.75 -36.0625 9.75 -35 7 C-29.13276956 3.32239577 -22.75734157 1.97730915 -15.91796875 1.68359375 C-14.52094727 1.62075195 -14.52094727 1.62075195 -13.09570312 1.55664062 C-12.13599609 1.51732422 -11.17628906 1.47800781 -10.1875 1.4375 C-9.20845703 1.39431641 -8.22941406 1.35113281 -7.22070312 1.30664062 C-4.81392973 1.2009774 -2.40706017 1.09887673 0 1 C0 0.67 0 0.34 0 0 Z " fill="#386274" transform="translate(134,9)"/>
<path d="M0 0 C0.66 0 1.32 0 2 0 C0.47146065 4.27186525 -1.71509481 7.99326863 -4.125 11.8125 C-4.49753906 12.40998047 -4.87007812 13.00746094 -5.25390625 13.62304688 C-6.1657048 15.08426251 -7.08235976 16.54244585 -8 18 C-7.67 18.33 -7.34 18.66 -7 19 C-5.9171875 17.576875 -5.9171875 17.576875 -4.8125 16.125 C-2.48049334 13.3239495 -0.59762532 11.94674351 3 11 C3.99 11 4.98 11 6 11 C6 11.66 6 12.32 6 13 C5.360625 13.28875 4.72125 13.5775 4.0625 13.875 C1.84793921 14.82823451 1.84793921 14.82823451 1 17 C0.34 17 -0.32 17 -1 17 C-1.0928125 17.928125 -1.0928125 17.928125 -1.1875 18.875 C-1.455625 19.57625 -1.72375 20.2775 -2 21 C-3.66666667 21.66666667 -5.33333333 22.33333333 -7 23 C-7.73323796 25.01508358 -7.73323796 25.01508358 -8 27 C-8.66 27.33 -9.32 27.66 -10 28 C-10.65213292 30.02463255 -10.65213292 30.02463255 -11 32 C-13.18945821 30.98346583 -14.94003719 30.05353822 -16.75 28.4375 C-20.07155174 26.3153975 -23.09220436 26.32564964 -27 26 C-27.125 23.125 -27.125 23.125 -27 20 C-26.34 19.34 -25.68 18.68 -25 18 C-25 19.32 -25 20.64 -25 22 C-24.34 22 -23.68 22 -23 22 C-22.34 20.02 -21.68 18.04 -21 16 C-20.01 16 -19.02 16 -18 16 C-17.34 14.68 -16.68 13.36 -16 12 C-15.34 12.66 -14.68 13.32 -14 14 C-13.66226563 13.36191406 -13.32453125 12.72382812 -12.9765625 12.06640625 C-12.53054687 11.24011719 -12.08453125 10.41382813 -11.625 9.5625 C-11.18414062 8.73878906 -10.74328125 7.91507813 -10.2890625 7.06640625 C-9 5 -9 5 -7 4 C-7.165 4.94875 -7.33 5.8975 -7.5 6.875 C-8.0526635 9.80168901 -8.0526635 9.80168901 -8 12 C-7.50628906 11.21753906 -7.01257813 10.43507813 -6.50390625 9.62890625 C-5.54291016 8.11103516 -5.54291016 8.11103516 -4.5625 6.5625 C-3.92441406 5.55316406 -3.28632812 4.54382812 -2.62890625 3.50390625 C-1 1 -1 1 0 0 Z " fill="#F5F39D" transform="translate(109,36)"/>
<path d="M0 0 C0 2.64 0 5.28 0 8 C-0.66 8 -1.32 8 -2 8 C-2 6.35 -2 4.7 -2 3 C-2.66 3 -3.32 3 -4 3 C-3.505 5.97 -3.505 5.97 -3 9 C-4.6875 9.6875 -4.6875 9.6875 -7 10 C-9.75 8.5625 -9.75 8.5625 -12 7 C-12 7.66 -12 8.32 -12 9 C-14.375 9.625 -14.375 9.625 -17 10 C-17.66 9.34 -18.32 8.68 -19 8 C-19.66 9.98 -20.32 11.96 -21 14 C-19.35 14 -17.7 14 -16 14 C-24.75229358 18.5382263 -24.75229358 18.5382263 -30 18 C-32.3125 17 -32.3125 17 -34 16 C-34 16.99 -34 17.98 -34 19 C-34.99 18.67 -35.98 18.34 -37 18 C-37 16.68 -37 15.36 -37 14 C-37.99 13.67 -38.98 13.34 -40 13 C-40 12.34 -40 11.68 -40 11 C-37.69 11.33 -35.38 11.66 -33 12 C-32.67 10.35 -32.34 8.7 -32 7 C-29.69 7 -27.38 7 -25 7 C-25 6.01 -25 5.02 -25 4 C-23.35218658 3.51938775 -21.70344132 3.04179716 -20.05078125 2.578125 C-18.09191949 2.02591254 -16.13949952 1.45099986 -14.1875 0.875 C-9.47754194 -0.30942953 -4.82518547 -0.17797815 0 0 Z " fill="#486C65" transform="translate(130,14)"/>
<path d="M0 0 C5.27315333 0.4452885 10.01770224 1.08373163 15 3 C12.265625 7.19921875 12.265625 7.19921875 11 9 C10.42507812 9.83660156 9.85015625 10.67320313 9.2578125 11.53515625 C6.56412528 14.47584247 4.36015753 15.40917422 0.625 16.75 C-0.47585937 17.15734375 -1.57671875 17.5646875 -2.7109375 17.984375 C-5.83884534 18.95023728 -8.74228166 19.67888205 -12 20 C-14.375 18.5625 -14.375 18.5625 -16 17 C-15.67 15.02 -15.34 13.04 -15 11 C-13.02 11.66 -11.04 12.32 -9 13 C-9.99 11.68 -10.98 10.36 -12 9 C-8.91190305 7.23537317 -7.76687864 7 -4 7 C-4 6.34 -4 5.68 -4 5 C-3.01 4.34 -2.02 3.68 -1 3 C-0.67 2.01 -0.34 1.02 0 0 Z " fill="#27AAD7" transform="translate(147,98)"/>
<path d="M0 0 C0.66 0.33 1.32 0.66 2 1 C2 1.66 2 2.32 2 3 C2.66 3 3.32 3 4 3 C6.91118319 9.52320677 7.46166225 14.96101003 7.375 22.0625 C7.38660156 23.01705078 7.39820313 23.97160156 7.41015625 24.95507812 C7.38618501 30.74413345 6.69421735 34.86102988 4 40 C1.03 39.67 -1.94 39.34 -5 39 C-5.86454373 36.07825883 -6.21490742 34.52329083 -5.0390625 31.66015625 C-4.57242188 30.80292969 -4.10578125 29.94570312 -3.625 29.0625 C0.52097336 19.93217085 -0.06714789 9.86415625 0 0 Z " fill="#07A1DF" transform="translate(164,51)"/>
<path d="M0 0 C2.83359844 -0.05449228 5.66612485 -0.09390733 8.5 -0.125 C9.29148437 -0.14175781 10.08296875 -0.15851562 10.8984375 -0.17578125 C22.86664562 -0.27388132 33.19554073 3.89062962 42 12 C35.62810393 17.24744382 31.28047697 20.42893262 23 21 C21.60869565 11.7826087 21.60869565 11.7826087 23 9 C22.1646875 8.9071875 22.1646875 8.9071875 21.3125 8.8125 C18.05012827 7.66626128 16.31332126 5.50609803 14 3 C14.33 2.67 14.66 2.34 15 2 C10.05 1.67 5.1 1.34 0 1 C0 0.67 0 0.34 0 0 Z " fill="#B8D3EC" transform="translate(116,27)"/>
<path d="M0 0 C0.33 1.32 0.66 2.64 1 4 C2.7634375 3.814375 2.7634375 3.814375 4.5625 3.625 C9.27516245 3.57459719 11.45827243 5.51333413 14.75 8.6875 C15.1625 9.120625 15.575 9.55375 16 10 C15.01 12.31 14.02 14.62 13 17 C12.34 17 11.68 17 11 17 C11.33 17.99 11.66 18.98 12 20 C8.91111478 22.05925681 8.29064073 22.2390374 4.8125 22.125 C3.554375 22.08375 2.29625 22.0425 1 22 C0.67 21.34 0.34 20.68 0 20 C-0.66 20.99 -1.32 21.98 -2 23 C-2.05447822 20.47886908 -2.09389852 17.9589415 -2.125 15.4375 C-2.14175781 14.73302734 -2.15851563 14.02855469 -2.17578125 13.30273438 C-2.22022044 8.48108178 -1.52768004 4.57702562 0 0 Z " fill="#E2AC5E" transform="translate(81,58)"/>
<path d="M0 0 C3.79450934 0.39253545 5.51015791 2.24338912 8 5 C7.67 5.66 7.34 6.32 7 7 C5.35 5.68 3.7 4.36 2 3 C2.21076172 3.60223389 2.42152344 4.20446777 2.63867188 4.82495117 C4.69472242 11.09288173 5.54716988 16.72831952 5.5 23.3125 C5.49572998 24.2209668 5.49145996 25.12943359 5.48706055 26.06542969 C5.30188533 33.43841315 4.42373739 40.83953608 0 47 C-2.67578125 47.828125 -2.67578125 47.828125 -5 48 C-4.60924355 44.19012458 -3.72166687 41.39126363 -1.9375 38.0625 C2.36924593 28.7442679 0.21343118 17.44233849 -1.66015625 7.70703125 C-1.99111192 5.07079812 -1.90414474 3.47360353 -1 1 C-0.67 0.67 -0.34 0.34 0 0 Z " fill="#79B8E8" transform="translate(156,40)"/>
<path d="M0 0 C0 0.33 0 0.66 0 1 C-4.455 1.495 -4.455 1.495 -9 2 C-8.01 2 -7.02 2 -6 2 C-5.01 2.33 -4.02 2.66 -3 3 C-3 3.99 -3 4.98 -3 6 C-4.8871875 6.12375 -4.8871875 6.12375 -6.8125 6.25 C-10.33811212 6.66557143 -10.33811212 6.66557143 -13 9.0625 C-13.33 9.701875 -13.66 10.34125 -14 11 C-13.29875 10.29875 -12.5975 9.5975 -11.875 8.875 C-10.451875 7.946875 -10.451875 7.946875 -9 7 C-5.6875 7.75 -5.6875 7.75 -3 9 C-3 9.99 -3 10.98 -3 12 C-3.66 12 -4.32 12 -5 12 C-5 12.99 -5 13.98 -5 15 C-5.66 15 -6.32 15 -7 15 C-7.99 17.97 -8.98 20.94 -10 24 C-11 21 -11 21 -11 19 C-11.66 18.34 -12.32 17.68 -13 17 C-12.625 14.875 -12.625 14.875 -12 13 C-13.093125 13.33 -14.18625 13.66 -15.3125 14 C-19 15 -19 15 -22 15 C-22 14.67 -22 14.34 -22 14 C-22.99 14.495 -22.99 14.495 -24 15 C-23.34 12.69 -22.68 10.38 -22 8 C-20.35 7.67 -18.7 7.34 -17 7 C-16.95875 6.401875 -16.9175 5.80375 -16.875 5.1875 C-16 3 -16 3 -13.5625 1.25 C-8.93950307 -0.37210418 -4.84696209 -0.25863236 0 0 Z " fill="#84313D" transform="translate(124,50)"/>
<path d="M0 0 C9.5936263 1.75153343 18.73554348 3.92226318 28 7 C26.38617243 10.40212299 24.41396234 13.10324519 22 16 C21.34 15.67 20.68 15.34 20 15 C21.2375 13.5459375 21.2375 13.5459375 22.5 12.0625 C25.10539608 9.52977999 25.10539608 9.52977999 25 8 C20.38 7.01 15.76 6.02 11 5 C10.67 6.32 10.34 7.64 10 9 C9.01 9.33 8.02 9.66 7 10 C7 10.66 7 11.32 7 12 C7.99 12.33 8.98 12.66 10 13 C8 14 8 14 5.5625 13.4375 C2.76814291 12.65853522 2.76814291 12.65853522 0 15 C0.99 16.32 1.98 17.64 3 19 C-0.4375 18.1875 -0.4375 18.1875 -4 17 C-5.93907715 11.18276854 -2.33707815 5.36757509 0 0 Z " fill="#93CABF" transform="translate(136,93)"/>
<path d="M0 0 C5.78461538 4.30769231 5.78461538 4.30769231 6.875 7.8125 C6.91625 8.534375 6.9575 9.25625 7 10 C8.98 10.66 10.96 11.32 13 12 C13 12.33 13 12.66 13 13 C12.26394531 12.86980469 11.52789062 12.73960938 10.76953125 12.60546875 C4.45712422 11.54449961 4.45712422 11.54449961 -1.0625 14.25 C-2.40043241 16.14900085 -3.7114388 18.06715821 -5 20 C-5.33 19.01 -5.66 18.02 -6 17 C-8.24875747 16.13149826 -8.24875747 16.13149826 -11 16 C-13.81099414 17.8312811 -13.81099414 17.8312811 -16 20 C-16.66 19.67 -17.32 19.34 -18 19 C-14.14376321 14.17970402 -14.14376321 14.17970402 -10.88671875 13.66796875 C-8.92143786 13.6854224 -6.95833873 13.83403909 -5 14 C-5.33 13.01 -5.66 12.02 -6 11 C-7.65 11.33 -9.3 11.66 -11 12 C-11 11.34 -11 10.68 -11 10 C-10.34 9.67 -9.68 9.34 -9 9 C-11.31 9.33 -13.62 9.66 -16 10 C-15.34 9.01 -14.68 8.02 -14 7 C-13.01 7 -12.02 7 -11 7 C-11.33 6.01 -11.66 5.02 -12 4 C-7.8794254 2.00214565 -4.54805635 1.82164485 0 2 C0 1.34 0 0.68 0 0 Z " fill="#8D484A" transform="translate(126,42)"/>
<path d="M0 0 C0.66 0 1.32 0 2 0 C4.82903701 5.65807403 4.74622152 15.7821893 3.32421875 21.9140625 C2.76392491 23.3505868 2.1854323 24.78026194 1.58203125 26.19921875 C0.76231312 28.2533359 0.76231312 28.2533359 1.625 31.5 C2.80286642 34.31143065 2.80286642 34.31143065 6 35 C6.6875 37.0625 6.6875 37.0625 7 39 C4 39 4 39 1.875 37.1875 C-1.41861848 33.3449451 -1.2488069 29.8932024 -1 25 C0 21.5625 0 21.5625 1 19 C0.01 19 -0.98 19 -2 19 C-2 16.36 -2 13.72 -2 11 C-2.04898438 11.78246094 -2.09796875 12.56492187 -2.1484375 13.37109375 C-2.26058594 14.88896484 -2.26058594 14.88896484 -2.375 16.4375 C-2.44460937 17.44683594 -2.51421875 18.45617187 -2.5859375 19.49609375 C-2.72257812 20.32238281 -2.85921875 21.14867188 -3 22 C-3.66 22.33 -4.32 22.66 -5 23 C-5.73075648 25.3140622 -6.40138258 27.64828869 -7 30 C-7.66 30 -8.32 30 -9 30 C-9.25864514 26.89625829 -9.35783722 25.47234514 -7.4375 22.9375 C-5.76336008 21.15341818 -5.76336008 21.15341818 -6.25 19.1875 C-6.4975 18.465625 -6.745 17.74375 -7 17 C-7.3496418 14.66905466 -7.68554487 12.33595238 -8 10 C-7.38640625 9.92910156 -6.7728125 9.85820313 -6.140625 9.78515625 C-3.81931552 9.1849879 -3.81931552 9.1849879 -2.734375 6.93359375 C-2.24710937 5.69802734 -2.24710937 5.69802734 -1.75 4.4375 C-1.41484375 3.61121094 -1.0796875 2.78492187 -0.734375 1.93359375 C-0.49203125 1.29550781 -0.2496875 0.65742187 0 0 Z " fill="#7E2A37" transform="translate(125,73)"/>
<path d="M0 0 C0.66 0 1.32 0 2 0 C1.67 1.65 1.34 3.3 1 5 C2.3921875 4.6596875 2.3921875 4.6596875 3.8125 4.3125 C4.864375 4.209375 5.91625 4.10625 7 4 C8.69921875 5.48046875 8.69921875 5.48046875 10 7 C8.56354149 8.60509934 7.12579294 10.20904424 5.6875 11.8125 C4.88699219 12.70582031 4.08648437 13.59914063 3.26171875 14.51953125 C2.51535156 15.33808594 1.76898438 16.15664063 1 17 C0.49082031 17.58136719 -0.01835938 18.16273437 -0.54296875 18.76171875 C-2 20 -2 20 -3.984375 20.46484375 C-6.65886998 21.17493253 -7.54054889 22.42568611 -9.25 24.5625 C-9.77078125 25.20316406 -10.2915625 25.84382813 -10.828125 26.50390625 C-11.21484375 26.99761719 -11.6015625 27.49132812 -12 28 C-13 25 -13 25 -12.10375977 23.00708008 C-11.40464478 21.89949341 -11.40464478 21.89949341 -10.69140625 20.76953125 C-10.19189453 19.96708984 -9.69238281 19.16464844 -9.17773438 18.33789062 C-8.64470703 17.50451172 -8.11167969 16.67113281 -7.5625 15.8125 C-7.03333984 14.96751953 -6.50417969 14.12253906 -5.95898438 13.25195312 C-4.64835944 11.16203769 -3.32848806 9.0785889 -2 7 C-2.66 6.67 -3.32 6.34 -4 6 C-2.7260411 3.96166576 -1.38938077 1.96147874 0 0 Z " fill="#F6F4EE" transform="translate(113,29)"/>
<path d="M0 0 C1.32 0.33 2.64 0.66 4 1 C5.52881258 8.11427638 4.87234733 12.23294816 1.28125 18.52734375 C-0.64635923 22.2473945 -1.27109602 25.8916321 -2 30 C-2.33 30 -2.66 30 -3 30 C-3 28.02 -3 26.04 -3 24 C-4.32 24.33 -5.64 24.66 -7 25 C-6.58525633 19.71201818 -5.64775386 16.88309282 -2 13 C-4.32357511 12.81509993 -4.32357511 12.81509993 -7 15 C-6.67 12.36 -6.34 9.72 -6 7 C-5.34 7 -4.68 7 -4 7 C-4 6.01 -4 5.02 -4 4 C-3.01 4 -2.02 4 -1 4 C-0.67 2.68 -0.34 1.36 0 0 Z " fill="#8A363D" transform="translate(123,58)"/>
<path d="M0 0 C8.82095238 6.09714286 8.82095238 6.09714286 11 11 C11 11.66 11 12.32 11 13 C10.34 13 9.68 13 9 13 C8.67 12.67 8.34 12.34 8 12 C7.97873047 13.95679688 7.97873047 13.95679688 7.95703125 15.953125 C7.74072388 25.32973531 7.44759097 33.14755165 3.05859375 41.58984375 C1.88788338 44.25526182 1.79912361 46.12077171 2 49 C0.35 48.67 -1.3 48.34 -3 48 C-2.566875 47.16082031 -2.13375 46.32164063 -1.6875 45.45703125 C5.13931643 31.15293591 5.19743892 14.94263689 0 0 Z " fill="#39ABE5" transform="translate(157,41)"/>
<path d="M0 0 C5.94 0 11.88 0 18 0 C17.67 0.99 17.34 1.98 17 3 C19.18900586 5.1687189 19.18900586 5.1687189 22 7 C24.75124253 6.86850174 24.75124253 6.86850174 27 6 C26.01958581 8.45103548 25.3486182 9.76758786 23.125 11.25 C21 12 21 12 17 12 C16.67 11.34 16.34 10.68 16 10 C13.98330173 8.86649466 13.98330173 8.86649466 12 8 C12 7.01 12 6.02 12 5 C11.34 5.66 10.68 6.32 10 7 C7.6171875 6.9765625 7.6171875 6.9765625 4.875 6.625 C3.96492188 6.51414062 3.05484375 6.40328125 2.1171875 6.2890625 C1.06917969 6.14597656 1.06917969 6.14597656 0 6 C0 4.02 0 2.04 0 0 Z " fill="#CDDEE9" transform="translate(114,28)"/>
<path d="M0 0 C-9.75624462 11.416882 -9.75624462 11.416882 -14 15 C-14.66 15 -15.32 15 -16 15 C-16.99 16.98 -17.98 18.96 -19 21 C-19.66 21 -20.32 21 -21 21 C-21.18175781 21.64066406 -21.36351563 22.28132813 -21.55078125 22.94140625 C-23.06270045 28.14395897 -24.75000671 33.07144327 -27 38 C-28.86181491 32.6214236 -27.24769717 28.21264576 -24.9375 23.25 C-20.37672248 14.50960505 -13.06855951 4.23656507 -4.1875 -0.5 C-2 -1 -2 -1 0 0 Z " fill="#425458" transform="translate(90,21)"/>
<path d="M0 0 C0.99 0 1.98 0 3 0 C5.23731748 6.80852729 5.08197427 11.49651192 2 18 C1.34 18.99 0.68 19.98 0 21 C-0.99 21 -1.98 21 -3 21 C-3.33 23.64 -3.66 26.28 -4 29 C-6 28 -6 28 -6.74609375 25.95703125 C-7.09316095 21.91503327 -6.13367801 18.56662037 -5.0625 14.6875 C-4.86720703 13.94693359 -4.67191406 13.20636719 -4.47070312 12.44335938 C-3.9900719 10.62633887 -3.49633486 8.81279386 -3 7 C-2.01 7 -1.02 7 0 7 C-0.2784375 5.824375 -0.2784375 5.824375 -0.5625 4.625 C-1 2 -1 2 0 0 Z " fill="#812D3A" transform="translate(134,78)"/>
<path d="M0 0 C5.27315333 0.4452885 10.01770224 1.08373163 15 3 C10.58506224 10.09543568 10.58506224 10.09543568 7 12 C3.01264046 11.86250484 -0.66750876 8.98667747 -4 7 C-4 6.34 -4 5.68 -4 5 C-3.01 4.34 -2.02 3.68 -1 3 C-0.67 2.01 -0.34 1.02 0 0 Z " fill="#09A1DC" transform="translate(147,98)"/>
<path d="M0 0 C3.78090912 3.17108507 4.44587513 5.16248985 5 10 C5.95036172 23.85624045 5.20265465 37.71738741 -2 50 C-3.485 50.495 -3.485 50.495 -5 51 C-4.566875 49.783125 -4.13375 48.56625 -3.6875 47.3125 C-3.11308665 45.54549512 -2.55165499 43.77424173 -2 42 C-1.71382812 41.07960937 -1.42765625 40.15921875 -1.1328125 39.2109375 C2.33589709 26.42626502 1.62304405 13.03670866 0 0 Z " fill="#6F7C6A" transform="translate(187,55)"/>
<path d="M0 0 C1.06605469 0.34289063 2.13210937 0.68578125 3.23046875 1.0390625 C5.8125 2.375 5.8125 2.375 6.765625 4.2890625 C6.84498552 7.82060565 5.32906468 10.22054546 3.8125 13.375 C2.8225 13.375 1.8325 13.375 0.8125 13.375 C1.1425 14.365 1.4725 15.355 1.8125 16.375 C2.16070041 18.03862417 2.49654492 19.70495171 2.8125 21.375 C0.45281256 23.47249995 -0.73366994 24.34405704 -3.9375 24.5625 C-5.05125 24.4696875 -5.05125 24.4696875 -6.1875 24.375 C-5.8575 23.385 -5.5275 22.395 -5.1875 21.375 C-6.1775 21.045 -7.1675 20.715 -8.1875 20.375 C-6.8675 20.375 -5.5475 20.375 -4.1875 20.375 C-4.1875 21.035 -4.1875 21.695 -4.1875 22.375 C-2.21213255 22.02713292 -2.21213255 22.02713292 -0.1875 21.375 C0.1425 20.715 0.4725 20.055 0.8125 19.375 C-0.115625 19.436875 -1.04375 19.49875 -2 19.5625 C-5.1875 19.375 -5.1875 19.375 -7.0625 17.875 C-7.43375 17.38 -7.805 16.885 -8.1875 16.375 C-5.3147885 13.5022885 -2.2202208 11.77400576 1.5625 10.3125 C3.97482993 9.59502336 3.97482993 9.59502336 4.8125 7.375 C3.8225 7.375 2.8325 7.375 1.8125 7.375 C2.1425 6.715 2.4725 6.055 2.8125 5.375 C3.4725 5.705 4.1325 6.035 4.8125 6.375 C4.8125 5.385 4.8125 4.395 4.8125 3.375 C-1.1275 3.87 -1.1275 3.87 -7.1875 4.375 C-7.1875 3.385 -7.1875 2.395 -7.1875 1.375 C-8.1775 1.045 -9.1675 0.715 -10.1875 0.375 C-6.42255343 -2.19573834 -4.1789682 -1.41504648 0 0 Z " fill="#6D6474" transform="translate(145.1875,56.625)"/>
<path d="M0 0 C0.33 0 0.66 0 1 0 C1.39113663 9.28949489 -1.97162014 18.27784522 -7 26 C-4.03 26.99 -1.06 27.98 2 29 C2 29.33 2 29.66 2 30 C-3.15171623 30.09038099 -7.91913204 29.84681133 -13 29 C-14.19287411 25.12315913 -15 22.08378077 -15 18 C-14.01 18 -13.02 18 -12 18 C-12 18.66 -12 19.32 -12 20 C-10.02 19.67 -8.04 19.34 -6 19 C-5.67 17.35 -5.34 15.7 -5 14 C-5.66 14 -6.32 14 -7 14 C-6.67 12.68 -6.34 11.36 -6 10 C-5.01 10 -4.02 10 -3 10 C-2.01 6.7 -1.02 3.4 0 0 Z " fill="#AECCEB" transform="translate(152,60)"/>
<path d="M0 0 C-0.5625 1.8125 -0.5625 1.8125 -2 4 C-4.30252483 5.06902939 -6.6372026 6.07175817 -9 7 C-9.66 7.66 -10.32 8.32 -11 9 C-11.33 9.33 -11.66 9.66 -12 10 C-9.36 10.66 -6.72 11.32 -4 12 C-4.33 12.99 -4.66 13.98 -5 15 C-6.32 15 -7.64 15 -9 15 C-9 14.34 -9 13.68 -9 13 C-11.64 13.66 -14.28 14.32 -17 15 C-17 14.34 -17 13.68 -17 13 C-18.32 13 -19.64 13 -21 13 C-21 10.36 -21 7.72 -21 5 C-18.03 5 -15.06 5 -12 5 C-12 4.34 -12 3.68 -12 3 C-10.329375 2.5359375 -10.329375 2.5359375 -8.625 2.0625 C-1.58823529 0 -1.58823529 0 0 0 Z " fill="#DFC096" transform="translate(150,64)"/>
<path d="M0 0 C0.33 0.99 0.66 1.98 1 3 C1.33 3.33 1.66 3.66 2 4 C2.99 3.01 3.98 2.02 5 1 C5.75 2.75 5.75 2.75 6 5 C5.38125 5.598125 4.7625 6.19625 4.125 6.8125 C1.22007265 9.80286639 1.14185762 11.88612914 1 16 C1.83169965 19.33499305 1.83169965 19.33499305 3 22 C3.33 22 3.66 22 4 22 C4.25532751 25.06393013 4.21861333 26.63233212 2.625 29.3125 C2.08875 29.869375 1.5525 30.42625 1 31 C0.34 31 -0.32 31 -1 31 C-1.495 32.485 -1.495 32.485 -2 34 C-2.33 33.67 -2.66 33.34 -3 33 C-3.66 34.98 -4.32 36.96 -5 39 C-5.66 38.67 -6.32 38.34 -7 38 C-6.57692877 36.68277821 -6.13602514 35.37127336 -5.6875 34.0625 C-5.44386719 33.33160156 -5.20023437 32.60070312 -4.94921875 31.84765625 C-4 30 -4 30 -1 29 C-0.80426392 27.56359829 -0.61872184 26.12580496 -0.4375 24.6875 C-0.33308594 23.88699219 -0.22867188 23.08648437 -0.12109375 22.26171875 C0.14755178 19.83182884 0.14755178 19.83182884 -1 17 C-1.66 16.67 -2.32 16.34 -3 16 C-3.33 16.66 -3.66 17.32 -4 18 C-4.05422947 16.5629191 -4.09289723 15.12524538 -4.125 13.6875 C-4.14820312 12.88699219 -4.17140625 12.08648437 -4.1953125 11.26171875 C-4 9 -4 9 -2 6 C-1.29835358 4.01200182 -0.62627128 2.01301483 0 0 Z " fill="#963E43" transform="translate(116,67)"/>
<path d="M0 0 C4.875 2.625 4.875 2.625 6 6 C8.37302955 7.75779966 9.72835491 8.01263466 12.6875 7.875 C16.39302031 6.89618331 19.61745722 5.43356702 23.046875 3.7421875 C23.69140625 3.49726562 24.3359375 3.25234375 25 3 C25.66 3.33 26.32 3.66 27 4 C25.08588443 4.98414433 23.1686033 5.96213349 21.25 6.9375 C19.64898437 7.75541016 19.64898437 7.75541016 18.015625 8.58984375 C12.96964253 10.94942882 8.78315031 11.13048767 3.25 11.0625 C2.55261719 11.05798828 1.85523437 11.05347656 1.13671875 11.04882812 C-0.57555803 11.0371002 -2.28779033 11.01916653 -4 11 C-3.67 8.03 -3.34 5.06 -3 2 C-2.01 2.33 -1.02 2.66 0 3 C0 2.01 0 1.02 0 0 Z " fill="#C5A969" transform="translate(125,109)"/>
<path d="M0 0 C2.4375 1.5625 2.4375 1.5625 5 4 C5.8125 7.75 5.8125 7.75 6 11 C6.66 11 7.32 11 8 11 C9.8753102 21.41587952 7.93361959 29.88532101 1.98828125 38.63671875 C1.66214844 39.08660156 1.33601562 39.53648438 1 40 C-0.32 39.67 -1.64 39.34 -3 39 C-2.34 39 -1.68 39 -1 39 C3.2960183 30.7340005 5.64982152 22.18476678 7 13 C5.68 12.67 4.36 12.34 3 12 C3 11.34 3 10.68 3 10 C2.01 9.67 1.02 9.34 0 9 C-1.6875 5.4375 -1.6875 5.4375 -3 2 C-2.01 1.34 -1.02 0.68 0 0 Z " fill="#99C4EB" transform="translate(146,47)"/>
<path d="M0 0 C0 1.66666667 0 3.33333333 0 5 C0.639375 5.28875 1.27875 5.5775 1.9375 5.875 C4 7 4 7 5 9 C5.61875 8.690625 6.2375 8.38125 6.875 8.0625 C8.25 7.375 9.625 6.6875 11 6 C9.44499019 9.81684226 6.96404505 12.19195732 4 15 C2.68 14.01 1.36 13.02 0 12 C-0.33 12.33 -0.66 12.66 -1 13 C-3.01311449 13.39569108 -5.03597208 13.74252191 -7.0625 14.0625 C-8.16722656 14.23910156 -9.27195312 14.41570313 -10.41015625 14.59765625 C-11.26480469 14.73042969 -12.11945313 14.86320312 -13 15 C-8.70214922 9.96836982 -4.36574458 4.97281557 0 0 Z " fill="#EFE8E2" transform="translate(127,31)"/>
<path d="M0 0 C4.49652778 -0.36458333 4.49652778 -0.36458333 6.8125 1.3125 C8 3 8 3 8 6 C6 8.1875 6 8.1875 4 10 C2.02 9.34 0.04 8.68 -2 8 C-1.01 9.32 -0.02 10.64 1 12 C0.01 13.32 -0.98 14.64 -2 16 C-3.32 15.34 -4.64 14.68 -6 14 C-6 14.66 -6 15.32 -6 16 C-6.99 15.67 -7.98 15.34 -9 15 C-8.67 13.35 -8.34 11.7 -8 10 C-7.01 10 -6.02 10 -5 10 C-4.855625 9.38125 -4.71125 8.7625 -4.5625 8.125 C-4 6 -4 6 -3 4 C-2.01 4 -1.02 4 0 4 C0 2.68 0 1.36 0 0 Z " fill="#99AC5E" transform="translate(82,33)"/>
<path d="M0 0 C0.66 0.33 1.32 0.66 2 1 C2 1.33 2 1.66 2 2 C2.66 2.33 3.32 2.66 4 3 C1.69 5.97 -0.62 8.94 -3 12 C-3.33 11.01 -3.66 10.02 -4 9 C-4.99 9.66 -5.98 10.32 -7 11 C-6.67 11.66 -6.34 12.32 -6 13 C-6.99609375 14.9453125 -6.99609375 14.9453125 -8.4375 17.125 C-8.91058594 17.84945312 -9.38367188 18.57390625 -9.87109375 19.3203125 C-10.24363281 19.87460938 -10.61617188 20.42890625 -11 21 C-11.66 20.67 -12.32 20.34 -13 20 C-12.79375 19.21625 -12.5875 18.4325 -12.375 17.625 C-12.25125 16.75875 -12.1275 15.8925 -12 15 C-12.66 14.34 -13.32 13.68 -14 13 C-13.625 10.875 -13.625 10.875 -13 9 C-12.34 9 -11.68 9 -11 9 C-10.67 7.35 -10.34 5.7 -10 4 C-9.01 4 -8.02 4 -7 4 C-7 4.99 -7 5.98 -7 7 C-4.69 4.69 -2.38 2.38 0 0 Z " fill="#8B373C" transform="translate(105,66)"/>
<path d="M0 0 C1.65 0 3.3 0 5 0 C5 1.65 5 3.3 5 5 C5.99 4.01 6.98 3.02 8 2 C8.99 2.33 9.98 2.66 11 3 C11 4.98 11 6.96 11 9 C9.02 9 7.04 9 5 9 C5.33 10.32 5.66 11.64 6 13 C0.72 12.67 -4.56 12.34 -10 12 C-10 11.67 -10 11.34 -10 11 C-8.329375 10.814375 -8.329375 10.814375 -6.625 10.625 C-2.96896323 10.3534187 -2.96896323 10.3534187 -1 8 C-0.95834237 6.00043389 -0.95834237 3.99956611 -1 2 C-0.67 1.34 -0.34 0.68 0 0 Z " fill="#668466" transform="translate(132,15)"/>
<path d="M0 0 C0.02505615 0.83660156 0.0501123 1.67320313 0.07592773 2.53515625 C0.17172836 5.67376726 0.27091655 8.81224881 0.37231445 11.95068359 C0.43632741 13.96313601 0.4965197 15.9757088 0.55664062 17.98828125 C0.7656066 24.38585504 1.03900084 30.66871141 2 37 C-1.48673955 34.55928231 -2.43378595 32.14100972 -3.25 28.125 C-4.57726526 19.36270012 -5.02139085 9.69198066 -3 1 C-1 0 -1 0 0 0 Z " fill="#757C6A" transform="translate(62,60)"/>
<path d="M0 0 C1.3303125 0.37125 1.3303125 0.37125 2.6875 0.75 C3.61594389 5.08273814 3.61594389 8.41726186 2.6875 12.75 C3.6775 13.41 4.6675 14.07 5.6875 14.75 C1.95520881 15.09718988 0.08792406 14.98503152 -3.1875 13.0625 C-5.3125 10.75 -5.3125 10.75 -5.4375 8.125 C-5.39625 7.34125 -5.355 6.5575 -5.3125 5.75 C-6.3025 5.09 -7.2925 4.43 -8.3125 3.75 C-4.12788462 -0.31153846 -4.12788462 -0.31153846 0 0 Z " fill="#DAA96B" transform="translate(131.3125,53.25)"/>
<path d="M0 0 C0.90169922 -0.020625 1.80339844 -0.04125 2.73242188 -0.0625 C3.59802734 -0.06765625 4.46363281 -0.0728125 5.35546875 -0.078125 C6.13946045 -0.0874707 6.92345215 -0.09681641 7.73120117 -0.10644531 C10.30390064 0.33415776 11.1785579 1.27084966 12.8125 3.25 C12.12325439 3.2593457 11.43400879 3.26869141 10.72387695 3.27832031 C-1.92255799 3.49379452 -13.28964792 3.70305016 -25.1875 8.25 C-26.84712931 8.61676891 -28.5126095 8.96081027 -30.1875 9.25 C-22.65435235 0.25882378 -11.00696202 0.06376227 0 0 Z " fill="#757A62" transform="translate(125.1875,7.75)"/>
<path d="M0 0 C0.66 0 1.32 0 2 0 C3.114446 4.6806732 2.9607923 7.58821732 1 12 C0 13 -1 14 -2 15 C-3.20049407 18.10007201 -3.20049407 18.10007201 -4 21 C-5.65 19.35 -7.3 17.7 -9 16 C-7.33173213 11.86905098 -5.79389117 8.49236397 -3 5 C-2.484375 4.0925 -1.96875 3.185 -1.4375 2.25 C-0.963125 1.5075 -0.48875 0.765 0 0 Z " fill="#7D2836" transform="translate(114,84)"/>
<path d="M0 0 C0 0.33 0 0.66 0 1 C-4.455 1.495 -4.455 1.495 -9 2 C-8.01 2 -7.02 2 -6 2 C-5.01 2.33 -4.02 2.66 -3 3 C-3 3.99 -3 4.98 -3 6 C-4.2375 6.0825 -5.475 6.165 -6.75 6.25 C-9.98882964 6.63475459 -10.87907883 6.90024003 -13.5 9.0625 C-13.995 9.701875 -14.49 10.34125 -15 11 C-15.66 10.67 -16.32 10.34 -17 10 C-17 9.67 -17 9.34 -17 9 C-18.175625 10.2065625 -18.175625 10.2065625 -19.375 11.4375 C-22 14 -22 14 -24 15 C-23.34 12.69 -22.68 10.38 -22 8 C-20.35 7.67 -18.7 7.34 -17 7 C-16.95875 6.401875 -16.9175 5.80375 -16.875 5.1875 C-16 3 -16 3 -13.5625 1.25 C-8.93950307 -0.37210418 -4.84696209 -0.25863236 0 0 Z " fill="#7D2B35" transform="translate(124,50)"/>
<path d="M0 0 C2.5 1.625 2.5 1.625 5 4 C5.3125 7.25 5.3125 7.25 5 10 C4.67 9.34 4.34 8.68 4 8 C3.21625 8.165 2.4325 8.33 1.625 8.5 C-2.18993245 9.02619758 -5.79193932 9.0332227 -9.6328125 8.9375 C-11.91709813 8.99781117 -13.81572634 9.35579026 -16 10 C-15.34 9.01 -14.68 8.02 -14 7 C-13.01 7 -12.02 7 -11 7 C-11.33 6.01 -11.66 5.02 -12 4 C-7.8794254 2.00214565 -4.54805635 1.82164485 0 2 C0 1.34 0 0.68 0 0 Z " fill="#81313A" transform="translate(126,42)"/>
<path d="M0 0 C2.83359844 -0.05449228 5.66612485 -0.09390733 8.5 -0.125 C9.29148437 -0.14175781 10.08296875 -0.15851562 10.8984375 -0.17578125 C17.93730395 -0.23347688 24.1999663 0.74998195 30.5 4.125 C32.2325 5.053125 32.2325 5.053125 34 6 C32 7 32 7 29.0625 6.375 C27.5465625 6.189375 27.5465625 6.189375 26 6 C24.37485532 7.45833358 24.37485532 7.45833358 23 9 C19.70982308 9 18.68607492 7.7074789 16.25 5.4375 C15.13625 4.2309375 15.13625 4.2309375 14 3 C14.33 2.67 14.66 2.34 15 2 C10.05 1.67 5.1 1.34 0 1 C0 0.67 0 0.34 0 0 Z " fill="#ACCABD" transform="translate(116,27)"/>
<path d="M0 0 C-0.33 1.65 -0.66 3.3 -1 5 C-0.34 5 0.32 5 1 5 C2.31626692 8.61973402 3 11.09567131 3 15 C3.66 15 4.32 15 5 15 C5 16.32 5 17.64 5 19 C5.66 19 6.32 19 7 19 C7 19.66 7 20.32 7 21 C5.35 21.33 3.7 21.66 2 22 C2.33 20.68 2.66 19.36 3 18 C2.01 18.33 1.02 18.66 0 19 C-1.64438905 16.04009971 -2.54561951 13.36241563 -3 10 C-2.67 9.67 -2.34 9.34 -2 9 C-2.495 8.608125 -2.99 8.21625 -3.5 7.8125 C-5.45593143 5.44908285 -5.24207973 3.98564997 -5 1 C-3 0 -3 0 0 0 Z " fill="#A1B153" transform="translate(75,84)"/>
<path d="M0 0 C4.64149572 4.64149572 3.35819244 12.6295434 3.3894043 18.77246094 C3.27853975 26.29569001 2.52675118 33.69607984 -2 40 C-4.67578125 40.828125 -4.67578125 40.828125 -7 41 C-6.01 40.505 -6.01 40.505 -5 40 C-4.6282349 38.67686751 -4.3023599 37.3406966 -4 36 C-3.51853516 34.92492187 -3.51853516 34.92492187 -3.02734375 33.828125 C1.53048153 23.04617272 0.36205447 11.4799116 0 0 Z " fill="#64B4E7" transform="translate(158,47)"/>
<path d="M0 0 C0 0.99 0 1.98 0 3 C-1 4 -2 5 -3 6 C-3 6.99 -3 7.98 -3 9 C-2.525625 8.175 -2.05125 7.35 -1.5625 6.5 C-1.046875 5.675 -0.53125 4.85 0 4 C0.33 4 0.66 4 1 4 C1.6875 6.8125 1.6875 6.8125 2 10 C0.5625 11.875 0.5625 11.875 -1 13 C-1.33 12.34 -1.66 11.68 -2 11 C-2.99 12.485 -2.99 12.485 -4 14 C-4.99 14 -5.98 14 -7 14 C-7.33 15.98 -7.66 17.96 -8 20 C-9.32 20.33 -10.64 20.66 -12 21 C-10.78313446 11.9364498 -6.65649927 6.14446087 0 0 Z " fill="#F2F3CB" transform="translate(95,38)"/>
<path d="M0 0 C0.66 0.33 1.32 0.66 2 1 C1.34 2.32 0.68 3.64 0 5 C1.32 4.34 2.64 3.68 4 3 C3.67 5.64 3.34 8.28 3 11 C1.68 10.67 0.36 10.34 -1 10 C-1 9.34 -1 8.68 -1 8 C-4.02010463 10.72838998 -5.32193259 13.58239665 -6.9375 17.2578125 C-8 19 -8 19 -11 20 C-11.33 19.67 -11.66 19.34 -12 19 C-11.39655172 11.39655172 -11.39655172 11.39655172 -9 9 C-9 10.98 -9 12.96 -9 15 C-8.62875 13.824375 -8.2575 12.64875 -7.875 11.4375 C-6.15578435 6.77817643 -3.41700389 3.5386448 0 0 Z " fill="#7F2A33" transform="translate(109,71)"/>
<path d="M0 0 C3.3125 -0.3125 3.3125 -0.3125 7 0 C9 2.25 9 2.25 10 5 C9.8125 7.25 9.8125 7.25 9 9 C6.21136993 10.39431504 4.07921132 10.25660094 1 10 C-1.56687367 6.1496895 -0.83288724 4.41430237 0 0 Z " fill="#E8AC6B" transform="translate(83,70)"/>
<path d="M0 0 C0.66 0 1.32 0 2 0 C0.49423753 4.16025095 -1.54838191 7.7422923 -3.875 11.5 C-4.55304688 12.6034375 -5.23109375 13.706875 -5.9296875 14.84375 C-7.82439421 17.73228401 -9.68066205 20.43926157 -12 23 C-14.75 23.3125 -14.75 23.3125 -17 23 C-17 21.68 -17 20.36 -17 19 C-16.01 18.67 -15.02 18.34 -14 18 C-13.67 17.01 -13.34 16.02 -13 15 C-12.34 15.66 -11.68 16.32 -11 17 C-10.62488281 16.35933594 -10.24976562 15.71867187 -9.86328125 15.05859375 C-6.78942822 9.86324013 -3.72372171 4.75808885 0 0 Z " fill="#F3EE73" transform="translate(109,36)"/>
<path d="M0 0 C0.66 0 1.32 0 2 0 C1.34 2.31 0.68 4.62 0 7 C0.99 6.34 1.98 5.68 3 5 C1.98346583 7.18945821 1.05353822 8.94003719 -0.5625 10.75 C-2.09674149 13.15142146 -2.28482972 14.4058388 -2.5625 17.1875 C-2.706875 18.445625 -2.85125 19.70375 -3 21 C-3.66 21.33 -4.32 21.66 -5 22 C-5 21.01 -5 20.02 -5 19 C-5.99 18.67 -6.98 18.34 -8 18 C-8.185625 16.824375 -8.185625 16.824375 -8.375 15.625 C-8.79117993 12.85942178 -8.79117993 12.85942178 -11 11 C-10.34 10.34 -9.68 9.68 -9 9 C-8.34 9.66 -7.68 10.32 -7 11 C-6.34 11 -5.68 11 -5 11 C-4.5978125 9.6696875 -4.5978125 9.6696875 -4.1875 8.3125 C-3.0749365 5.2090334 -1.89804222 2.68889315 0 0 Z " fill="#97443D" transform="translate(106,79)"/>
<path d="M0 0 C3.96 0.33 7.92 0.66 12 1 C11 6 11 6 9 9 C5.37 8.01 1.74 7.02 -2 6 C-1.34 4.02 -0.68 2.04 0 0 Z " fill="#0AA0D9" transform="translate(155,91)"/>
<path d="M0 0 C0.99 0 1.98 0 3 0 C3 0.66 3 1.32 3 2 C3.66 2 4.32 2 5 2 C5.33 3.98 5.66 5.96 6 8 C4.2984375 8.4640625 4.2984375 8.4640625 2.5625 8.9375 C-0.78775099 9.62924531 -0.78775099 9.62924531 -2 11 C-2.99 11 -3.98 11 -5 11 C-5 9.68 -5 8.36 -5 7 C-5.99 6.67 -6.98 6.34 -8 6 C-8 5.34 -8 4.68 -8 4 C-5.69 4.33 -3.38 4.66 -1 5 C-0.67 3.35 -0.34 1.7 0 0 Z " fill="#799360" transform="translate(98,21)"/>
<path d="M0 0 C1.37478516 0.01740234 1.37478516 0.01740234 2.77734375 0.03515625 C3.69644531 0.04417969 4.61554688 0.05320312 5.5625 0.0625 C6.27277344 0.07410156 6.98304688 0.08570313 7.71484375 0.09765625 C7.71484375 2.73765625 7.71484375 5.37765625 7.71484375 8.09765625 C7.05484375 8.09765625 6.39484375 8.09765625 5.71484375 8.09765625 C5.71484375 6.44765625 5.71484375 4.79765625 5.71484375 3.09765625 C5.05484375 3.09765625 4.39484375 3.09765625 3.71484375 3.09765625 C4.04484375 5.07765625 4.37484375 7.05765625 4.71484375 9.09765625 C0.96484375 10.22265625 0.96484375 10.22265625 -1.28515625 9.09765625 C-1.28515625 8.10765625 -1.28515625 7.11765625 -1.28515625 6.09765625 C-2.27515625 6.09765625 -3.26515625 6.09765625 -4.28515625 6.09765625 C-3.21536826 0.1374089 -3.21536826 0.1374089 0 0 Z " fill="#8EA460" transform="translate(122.28515625,13.90234375)"/>
<path d="M0 0 C0.66 0.33 1.32 0.66 2 1 C2 1.66 2 2.32 2 3 C1.360625 3.28875 0.72125 3.5775 0.0625 3.875 C-2.15206079 4.82823451 -2.15206079 4.82823451 -3 7 C-3.66 7 -4.32 7 -5 7 C-5.061875 7.61875 -5.12375 8.2375 -5.1875 8.875 C-5.455625 9.57625 -5.72375 10.2775 -6 11 C-7.66072849 11.68132451 -9.327767 12.34742127 -11 13 C-12.34410262 15.01735205 -12.34410262 15.01735205 -13 17 C-15.31 16.01 -17.62 15.02 -20 14 C-19.401875 13.731875 -18.80375 13.46375 -18.1875 13.1875 C-15.95672092 12.1106021 -15.95672092 12.1106021 -14.375 10.375 C-13.92125 9.92125 -13.4675 9.4675 -13 9 C-12.34 9 -11.68 9 -11 9 C-9.78652802 7.49135916 -8.57402945 5.98189916 -7.37109375 4.46484375 C-5.51553398 2.4824081 -3.56509361 1.7837786 -1 1 C-0.67 0.67 -0.34 0.34 0 0 Z " fill="#F2EC8C" transform="translate(113,46)"/>
<path d="M0 0 C0.99 0 1.98 0 3 0 C4.06528748 2.73019786 4.07998186 3.79298812 3.00390625 6.578125 C2.52824219 7.45984375 2.05257812 8.3415625 1.5625 9.25 C0.85287109 10.58804688 0.85287109 10.58804688 0.12890625 11.953125 C-0.24363281 12.62859375 -0.61617187 13.3040625 -1 14 C-2 11 -2 11 -2 9 C-2.99 9 -3.98 9 -5 9 C-5 10.32 -5 11.64 -5 13 C-7.49361571 11.79618552 -9.68143083 10.54571278 -12 9 C-11.67 8.34 -11.34 7.68 -11 7 C-8.93359375 6.5859375 -8.93359375 6.5859375 -6.4375 6.375 C-5.61121094 6.30023438 -4.78492187 6.22546875 -3.93359375 6.1484375 C-2.97646484 6.07496094 -2.97646484 6.07496094 -2 6 C-1.855625 5.195625 -1.71125 4.39125 -1.5625 3.5625 C-1 1 -1 1 0 0 Z " fill="#446868" transform="translate(83,44)"/>
<path d="M0 0 C0.66 0.66 1.32 1.32 2 2 C-15.27521879 11.3379561 -27.65570985 12.50421427 -47 11 C-47 10.67 -47 10.34 -47 10 C-46.34104736 9.9906543 -45.68209473 9.98130859 -45.00317383 9.97167969 C-28.11215356 9.67081807 -15.0032705 8.26365238 0 0 Z " fill="#CEC6D1" transform="translate(162,135)"/>
<path d="M0 0 C8.24772597 1.31410309 8.24772597 1.31410309 11.125 3.9375 C12 6 12 6 11 9 C8 11 8 11 4 11 C3.731875 9.88625 3.46375 8.7725 3.1875 7.625 C2.34190981 3.78159049 2.34190981 3.78159049 -1 2 C-0.67 1.34 -0.34 0.68 0 0 Z " fill="#84BCE7" transform="translate(143,32)"/>
<path d="M0 0 C0.99 0 1.98 0 3 0 C5.0017516 6.09166134 5.14467259 10.21070088 2.921875 16.25 C2 18 2 18 0 19 C-0.66 18.67 -1.32 18.34 -2 18 C-1.505 16.515 -1.505 16.515 -1 15 C-0.95542327 12.81295424 -0.9609001 10.62465053 -1 8.4375 C-1.11087191 2.22174381 -1.11087191 2.22174381 0 0 Z " fill="#81323E" transform="translate(134,78)"/>
<path d="M0 0 C3.21235265 2.90968988 5.03600712 5.61771973 6.8125 9.5625 C7.25207031 10.51253906 7.69164062 11.46257813 8.14453125 12.44140625 C9 15 9 15 8 18 C6.35 14.37 4.7 10.74 3 7 C2.67 8.98 2.34 10.96 2 13 C-0.31 13.66 -2.62 14.32 -5 15 C-4.67 14.34 -4.34 13.68 -4 13 C-1.4375 12.375 -1.4375 12.375 1 12 C0.01 11.34 -0.98 10.68 -2 10 C-3 9 -3 9 -4 7 C-4 6.01 -4 5.02 -4 4 C-2.68 4 -1.36 4 0 4 C0 2.68 0 1.36 0 0 Z " fill="#9CB270" transform="translate(178,37)"/>
<path d="M0 0 C0 3.93235469 -1.54945341 5.02964049 -4 8 C-4.33 8.99 -4.66 9.98 -5 11 C-5.66 11 -6.32 11 -7 11 C-7.18175781 11.64066406 -7.36351563 12.28132813 -7.55078125 12.94140625 C-9.06270045 18.14395897 -10.75000671 23.07144327 -13 28 C-14.92253452 22.44601139 -13.1364304 18.00866973 -10.6875 12.9375 C-7.90062678 7.60400125 -5.03549285 3.41694158 0 0 Z " fill="#7A7E60" transform="translate(76,31)"/>
<path d="M0 0 C2.86867231 1.38264837 5.56024032 2.92148553 8.25 4.625 C8.95640625 5.07101563 9.6628125 5.51703125 10.390625 5.9765625 C10.92171875 6.31429687 11.4528125 6.65203125 12 7 C11.01 7.495 11.01 7.495 10 8 C9.67 8.99 9.34 9.98 9 11 C5.54081981 9.78461236 3.55967074 8.55967074 1 6 C0.01 6 -0.98 6 -2 6 C-1.34 4.02 -0.68 2.04 0 0 Z " fill="#BFC951" transform="translate(91,115)"/>
<path d="M0 0 C0.33 1.32 0.66 2.64 1 4 C2.7634375 3.814375 2.7634375 3.814375 4.5625 3.625 C9.27516245 3.57459719 11.45827243 5.51333413 14.75 8.6875 C15.1625 9.120625 15.575 9.55375 16 10 C15.01 10.495 15.01 10.495 14 11 C13.34 10.690625 12.68 10.38125 12 10.0625 C7.68044339 8.53265704 3.53818885 8.84138369 -1 9 C-0.67 6.03 -0.34 3.06 0 0 Z " fill="#EEDA53" transform="translate(81,58)"/>
<path d="M0 0 C0.515625 0.309375 1.03125 0.61875 1.5625 0.9375 C4.66665423 2.29059287 7.65115007 2.61359424 11 3 C11 3.33 11 3.66 11 4 C8.03 4 5.06 4 2 4 C2.33 4.99 2.66 5.98 3 7 C2.5625 9.6875 2.5625 9.6875 2 12 C3.32 12 4.64 12 6 12 C6.59732819 14.76264289 7 17.16032769 7 20 C6.01 20 5.02 20 4 20 C3.34 18.35 2.68 16.7 2 15 C1.67 15 1.34 15 1 15 C0.63355422 13.44033408 0.28239138 11.87707349 -0.0625 10.3125 C-0.25972656 9.44238281 -0.45695312 8.57226562 -0.66015625 7.67578125 C-1.02032279 4.83998724 -0.70909969 2.75210018 0 0 Z " fill="#8F3B3D" transform="translate(127,65)"/>
<path d="M0 0 C0.33 0.66 0.66 1.32 1 2 C-0.32 3.32 -1.64 4.64 -3 6 C-3.99 5.67 -4.98 5.34 -6 5 C-8.07096943 6.39877428 -8.07096943 6.39877428 -10.0625 8.375 C-13.87152034 11.93576017 -13.87152034 11.93576017 -16 13 C-17.22419811 9.32740566 -16.54143712 8.42541582 -15 5 C-14.67 4.01 -14.34 3.02 -14 2 C-12 2 -10 2 -8 2 C-8 2.33 -8 2.66 -8 3 C-3.92035719 1.69844994 -3.92035719 1.69844994 0 0 Z " fill="#9F4B48" transform="translate(113,61)"/>
<path d="M0 0 C7.59 0.33 15.18 0.66 23 1 C23.33 1.66 23.66 2.32 24 3 C20.54797535 4.15067488 17.82381728 4.13274508 14.1875 4.125 C12.98480469 4.12757813 11.78210938 4.13015625 10.54296875 4.1328125 C7.26839682 4.01006118 4.21327402 3.62001918 1 3 C0.67 2.01 0.34 1.02 0 0 Z " fill="#82826C" transform="translate(111,138)"/>
<path d="M0 0 C0.66 0 1.32 0 2 0 C2.33 0.66 2.66 1.32 3 2 C3.99 1.67 4.98 1.34 6 1 C8.6875 1.9375 8.6875 1.9375 11 3 C11 4.65 11 6.3 11 8 C5.375 8.25 5.375 8.25 2 6 C2 5.34 2 4.68 2 4 C1.01 4.33 0.02 4.66 -1 5 C-0.67 3.35 -0.34 1.7 0 0 Z " fill="#587559" transform="translate(106,124)"/>
<path d="M0 0 C3.78903708 0.25260247 5.54186593 2.27849443 8 5 C7.67 5.66 7.34 6.32 7 7 C5.35 5.68 3.7 4.36 2 3 C2.165 4.258125 2.33 5.51625 2.5 6.8125 C3.11073012 12.2144509 3.09133564 17.57060338 3 23 C2.67 23 2.34 23 2 23 C1.67 19.37 1.34 15.74 1 12 C0.34 12 -0.32 12 -1 12 C-1.22162329 10.37675914 -1.42689803 8.751279 -1.625 7.125 C-1.74101562 6.22007813 -1.85703125 5.31515625 -1.9765625 4.3828125 C-1.98429688 3.59648438 -1.99203125 2.81015625 -2 2 C-1.34 1.34 -0.68 0.68 0 0 Z " fill="#71B6E7" transform="translate(156,40)"/>
<path d="M0 0 C4.10958767 1.45044271 7.43258745 3.51110752 11 6 C9.3125 7.5625 9.3125 7.5625 7 9 C3.49389321 8.7434556 1.9721099 7.9814066 -1 6 C-0.67 4.02 -0.34 2.04 0 0 Z " fill="#0BA0D8" transform="translate(132,109)"/>
<path d="M0 0 C0.66 0.33 1.32 0.66 2 1 C1.67 1.99 1.34 2.98 1 4 C2.32 3.01 3.64 2.02 5 1 C4.0625 10.21875 4.0625 10.21875 2 14 C1.01 14.33 0.02 14.66 -1 15 C-1.66 14.67 -2.32 14.34 -3 14 C-2.67 12.35 -2.34 10.7 -2 9 C-1.01 9 -0.02 9 1 9 C0.67 8.34 0.34 7.68 0 7 C-0.04022391 4.6670134 -0.04320247 2.33293334 0 0 Z " fill="#899F60" transform="translate(178,84)"/>
<path d="M0 0 C0.66 0.33 1.32 0.66 2 1 C2 1.33 2 1.66 2 2 C2.66 2.33 3.32 2.66 4 3 C1.69 5.97 -0.62 8.94 -3 12 C-3.33 11.01 -3.66 10.02 -4 9 C-5.65 9 -7.3 9 -9 9 C-9.33 7.35 -9.66 5.7 -10 4 C-9.01 4 -8.02 4 -7 4 C-7 4.99 -7 5.98 -7 7 C-4.69 4.69 -2.38 2.38 0 0 Z " fill="#701F2A" transform="translate(105,66)"/>
<path d="M0 0 C2.46800047 1.15173355 4.04783565 2.04783565 6 4 C6 5.32 6 6.64 6 8 C5.38125 8.103125 4.7625 8.20625 4.125 8.3125 C1.63473516 8.87525373 1.63473516 8.87525373 0 12 C-1.5 10.625 -1.5 10.625 -3 9 C-3 8.34 -3 7.68 -3 7 C-2.34 7 -1.68 7 -1 7 C-1.33 6.01 -1.66 5.02 -2 4 C-1.0625 1.8125 -1.0625 1.8125 0 0 Z " fill="#396271" transform="translate(172,33)"/>
<path d="M0 0 C-1.14514798 5.41342681 -2.34012809 7.9342948 -7 11 C-6.67 9.02 -6.34 7.04 -6 5 C-7.32 4.67 -8.64 4.34 -10 4 C-9.01 3.67 -8.02 3.34 -7 3 C-9.97 2.505 -9.97 2.505 -13 2 C-9.16001987 -2.17389144 -5.07563763 -0.9001665 0 0 Z " fill="#3D5C65" transform="translate(143,10)"/>
<path d="M0 0 C2.4375 1.4375 2.4375 1.4375 5 4 C5.73151889 6.99304558 5.92773687 9.92553213 6 13 C5.01 12.67 4.02 12.34 3 12 C3 11.34 3 10.68 3 10 C2.01 9.67 1.02 9.34 0 9 C-1.6875 5.4375 -1.6875 5.4375 -3 2 C-2.01 1.34 -1.02 0.68 0 0 Z " fill="#B5D2EC" transform="translate(146,47)"/>
<path d="M0 0 C10.25 0 10.25 0 15 1 C15 2.32 15 3.64 15 5 C14.34 4.67 13.68 4.34 13 4 C13.33 3.34 13.66 2.68 14 2 C13.01 2 12.02 2 11 2 C11 2.99 11 3.98 11 5 C9.02 5.33 7.04 5.66 5 6 C5 4.68 5 3.36 5 2 C4.34 2 3.68 2 3 2 C3 2.99 3 3.98 3 5 C2.34 5 1.68 5 1 5 C0.67 3.35 0.34 1.7 0 0 Z " fill="#A0B055" transform="translate(119,127)"/>
<path d="M0 0 C4.49652778 -0.36458333 4.49652778 -0.36458333 6.8125 1.3125 C8 3 8 3 8 6 C5.5 8.1875 5.5 8.1875 3 10 C1 8 -1 6 -3 4 C-2.01 4 -1.02 4 0 4 C0 2.68 0 1.36 0 0 Z " fill="#46695E" transform="translate(82,33)"/>
<path d="M0 0 C0.66 0 1.32 0 2 0 C4.10302072 7.24710019 4.10746049 12.0833944 1 19 C0.67 19 0.34 19 0 19 C0 16.03 0 13.06 0 10 C-0.99 10 -1.98 10 -3 10 C-3 9.34 -3 8.68 -3 8 C-2.34 8 -1.68 8 -1 8 C-1.020625 7.05125 -1.04125 6.1025 -1.0625 5.125 C-1 2 -1 2 0 0 Z " fill="#7E3131" transform="translate(120,100)"/>
<path d="M0 0 C-0.33 1.65 -0.66 3.3 -1 5 C-0.01 5 0.98 5 2 5 C1.67 5.66 1.34 6.32 1 7 C0.34 6.67 -0.32 6.34 -1 6 C-1 6.66 -1 7.32 -1 8 C-2.65614657 8.38218767 -4.32457024 8.71395102 -6 9 C-7 8 -7 8 -7.0625 4.4375 C-7.041875 3.303125 -7.02125 2.16875 -7 1 C-4.53721199 -0.231394 -2.7204945 -0.07159196 0 0 Z " fill="#4C6F65" transform="translate(119,15)"/>
<path d="M0 0 C0.99 0 1.98 0 3 0 C3.33 0.99 3.66 1.98 4 3 C4.66 3.66 5.32 4.32 6 5 C5.01 5 4.02 5 3 5 C3.33 5.99 3.66 6.98 4 8 C7.02282643 9.03547047 7.02282643 9.03547047 10.5625 9.6875 C11.76003906 9.93886719 12.95757812 10.19023438 14.19140625 10.44921875 C15.58166016 10.72185547 15.58166016 10.72185547 17 11 C17 11.33 17 11.66 17 12 C11.84828377 12.09038099 7.08086796 11.84681133 2 11 C0.80712589 7.12315913 0 4.08378077 0 0 Z " fill="#D5E6C4" transform="translate(137,78)"/>
<path d="M0 0 C4.2742558 1.5830577 6.26531794 4.50568404 9 8 C8.67 8.66 8.34 9.32 8 10 C6.35 8.68 4.7 7.36 3 6 C2.9175 7.11375 2.835 8.2275 2.75 9.375 C2 13 2 13 -0.0625 14.4375 C-1.0215625 14.7159375 -1.0215625 14.7159375 -2 15 C-1.67 14.01 -1.34 13.02 -1 12 C-1.99 12 -2.98 12 -4 12 C-3.67 11.01 -3.34 10.02 -3 9 C-2.01 9 -1.02 9 0 9 C0.84454356 5.62182575 1.10844919 3.32534757 0 0 Z " fill="#7F9A77" transform="translate(169,27)"/>
<path d="M0 0 C1.99954746 -0.04254356 4.00041636 -0.04080783 6 0 C7 1 7 1 7.1875 3.4375 C7 6 7 6 5 8 C2.375 8.125 2.375 8.125 0 8 C0 5.36 0 2.72 0 0 Z " fill="#E0B276" transform="translate(129,69)"/>
<path d="M0 0 C4.19162145 0.95264124 5.7207791 1.63260408 8.375 5.125 C8.91125 6.07375 9.4475 7.0225 10 8 C7.69 7.67 5.38 7.34 3 7 C2.896875 7.94875 2.79375 8.8975 2.6875 9.875 C2 13 2 13 -1 15 C-0.814375 14.071875 -0.62875 13.14375 -0.4375 12.1875 C0.24123881 8.98656229 0.24123881 8.98656229 -1 6 C-0.34 6 0.32 6 1 6 C1 5.34 1 4.68 1 4 C2.32 4 3.64 4 5 4 C4.175 3.525625 3.35 3.05125 2.5 2.5625 C1.675 2.046875 0.85 1.53125 0 1 C0 0.67 0 0.34 0 0 Z " fill="#546660" transform="translate(156,16)"/>
<path d="M0 0 C0.33 0 0.66 0 1 0 C1.08184423 2.97973615 1.14089764 5.95716832 1.1875 8.9375 C1.22520508 10.18370117 1.22520508 10.18370117 1.26367188 11.45507812 C1.33282588 17.37927081 0.56493103 22.60319942 -2 28 C-4.1875 30.0625 -4.1875 30.0625 -6 31 C-5.422706 27.56630341 -4.50939523 24.81172616 -3 21.6875 C-0.08694029 14.73204222 -0.18449491 7.43514482 0 0 Z " fill="#20A7E4" transform="translate(164,57)"/>
<path d="M0 0 C3.875 2.625 3.875 2.625 5 6 C5.08291953 7.9920303 5.10738177 9.98673713 5.09765625 11.98046875 C5.09282227 13.72553711 5.09282227 13.72553711 5.08789062 15.50585938 C5.07951172 16.72080078 5.07113281 17.93574219 5.0625 19.1875 C5.05798828 20.41404297 5.05347656 21.64058594 5.04882812 22.90429688 C5.03703065 25.93624668 5.02056921 28.96809906 5 32 C4.67 32 4.34 32 4 32 C3.96261719 30.69546875 3.92523438 29.3909375 3.88671875 28.046875 C3.54344757 18.32364902 3.0111128 9.31740563 0 0 Z " fill="#4FAFE6" transform="translate(157,41)"/>
<path d="M0 0 C1.06605469 0.34289063 2.13210937 0.68578125 3.23046875 1.0390625 C5.8125 2.375 5.8125 2.375 6.67578125 4.5234375 C6.72089844 5.13445313 6.76601562 5.74546875 6.8125 6.375 C6.1525 6.045 5.4925 5.715 4.8125 5.375 C4.8125 4.715 4.8125 4.055 4.8125 3.375 C-1.1275 3.87 -1.1275 3.87 -7.1875 4.375 C-7.1875 3.385 -7.1875 2.395 -7.1875 1.375 C-8.1775 1.045 -9.1675 0.715 -10.1875 0.375 C-6.42255343 -2.19573834 -4.1789682 -1.41504648 0 0 Z " fill="#938C95" transform="translate(145.1875,56.625)"/>
<path d="M0 0 C1.32 0.33 2.64 0.66 4 1 C4 1.99 4 2.98 4 4 C3.34 4 2.68 4 2 4 C2 4.99 2 5.98 2 7 C1.34 7 0.68 7 0 7 C-0.99 9.97 -1.98 12.94 -3 16 C-4.09190042 12.72429875 -4.28600189 10.43202271 -4 7 C-2.5625 5.375 -2.5625 5.375 -1 4 C-0.28552357 1.89667109 -0.28552357 1.89667109 0 0 Z " fill="#772636" transform="translate(117,58)"/>
<path d="M0 0 C0 3.63 0 7.26 0 11 C-0.99 11 -1.98 11 -3 11 C-4 8 -4 8 -4 5 C-4.99 4.34 -5.98 3.68 -7 3 C-4.49955934 -0.00052879 -4.2621484 0 0 0 Z " fill="#D09155" transform="translate(130,54)"/>
<path d="M0 0 C3 1 3 1 4 3 C4.61875 2.690625 5.2375 2.38125 5.875 2.0625 C7.25 1.375 8.625 0.6875 10 0 C8.44499019 3.81684226 5.96404505 6.19195732 3 9 C1.35 7.35 -0.3 5.7 -2 4 C-1.34 2.68 -0.68 1.36 0 0 Z " fill="#E6E8D4" transform="translate(128,37)"/>
<path d="M0 0 C1.98 0.66 3.96 1.32 6 2 C6 2.99 6 3.98 6 5 C4.01432292 5.22786458 2.02864583 5.45572917 0.04296875 5.68359375 C-2.19396393 5.97170735 -2.19396393 5.97170735 -5 7 C-5 5.35 -5 3.7 -5 2 C-3.68 2 -2.36 2 -1 2 C-0.67 1.34 -0.34 0.68 0 0 Z " fill="#91A556" transform="translate(148,123)"/>
<path d="M0 0 C-0.66 0.66 -1.32 1.32 -2 2 C-2 2.99 -2 3.98 -2 5 C-3.2375 5.144375 -4.475 5.28875 -5.75 5.4375 C-8.56504499 5.78688502 -11.2701497 6.20379366 -14 7 C-13.34 6.01 -12.68 5.02 -12 4 C-11.01 4 -10.02 4 -9 4 C-9.33 3.01 -9.66 2.02 -10 1 C-6.21812119 -0.83691257 -4.05431692 -1.15837626 0 0 Z " fill="#A34F43" transform="translate(124,45)"/>
<path d="M0 0 C1.134375 0.020625 2.26875 0.04125 3.4375 0.0625 C1.96057692 4.73942308 1.96057692 4.73942308 -0.6875 6.375 C-1.30625 6.601875 -1.925 6.82875 -2.5625 7.0625 C-3.5525 6.4025 -4.5425 5.7425 -5.5625 5.0625 C-4.43693182 0.07784091 -4.43693182 0.07784091 0 0 Z " fill="#6EB6DF" transform="translate(144.5625,96.9375)"/>
<path d="M0 0 C0.99 0 1.98 0 3 0 C2.53199289 4.05606165 2.12046792 7.46588679 0 11 C-1.32 9.35 -2.64 7.7 -4 6 C-2.84826645 3.53199953 -1.95216435 1.95216435 0 0 Z " fill="#832F3A" transform="translate(109,94)"/>
<path d="M0 0 C0.66 0 1.32 0 2 0 C5 5.625 5 5.625 5 9 C4.01 9.33 3.02 9.66 2 10 C1.67 9.01 1.34 8.02 1 7 C0.34 7 -0.32 7 -1 7 C-1 6.34 -1 5.68 -1 5 C-1.66 5 -2.32 5 -3 5 C-1.125 1.125 -1.125 1.125 0 0 Z " fill="#D5DD50" transform="translate(84,107)"/>
<path d="M0 0 C2.64 0 5.28 0 8 0 C7.49396008 2.16874252 7.00016187 3.99967627 6 6 C3.36 5.34 0.72 4.68 -2 4 C-1.34 2.68 -0.68 1.36 0 0 Z " fill="#6BB5E2" transform="translate(147,91)"/>
<path d="M0 0 C1.9375 0.9375 1.9375 0.9375 3.0625 3.375 C3.35125 4.220625 3.64 5.06625 3.9375 5.9375 C4.5975 6.5975 5.2575 7.2575 5.9375 7.9375 C4.47565942 7.70889942 3.01794581 7.45379608 1.5625 7.1875 C0.34433594 6.97867188 0.34433594 6.97867188 -0.8984375 6.765625 C-3.0625 5.9375 -3.0625 5.9375 -4.3515625 3.859375 C-4.58617187 3.22515625 -4.82078125 2.5909375 -5.0625 1.9375 C-2.0625 -0.0625 -2.0625 -0.0625 0 0 Z " fill="#D9E3EE" transform="translate(143.0625,50.0625)"/>
<path d="M0 0 C1 2 1 2 0.4375 4.875 C-0.02668698 8.1906213 0.03523626 9.34756895 2 12 C2.99 12.33 3.98 12.66 5 13 C5.6875 15.0625 5.6875 15.0625 6 17 C3 17 3 17 0.875 15.1875 C-2.40542512 11.36033736 -2.26128979 7.87740934 -2 3 C-1.34 2.01 -0.68 1.02 0 0 Z " fill="#722632" transform="translate(126,95)"/>
<path d="M0 0 C3 1 3 1 5 3 C4.8125 5.5 4.8125 5.5 4 8 C0.77208445 10.1519437 -0.28400809 10.20086443 -4 10 C-3.67 9.01 -3.34 8.02 -3 7 C-3.99 6.67 -4.98 6.34 -6 6 C-4.68 6 -3.36 6 -2 6 C-2 6.66 -2 7.32 -2 8 C-0.02463255 7.65213292 -0.02463255 7.65213292 2 7 C2.33 6.34 2.66 5.68 3 5 C1.68 4.34 0.36 3.68 -1 3 C-0.67 2.01 -0.34 1.02 0 0 Z " fill="#8D8590" transform="translate(143,71)"/>
<path d="M0 0 C0.721875 0.12375 1.44375 0.2475 2.1875 0.375 C1.7379955 1.69054985 1.27760284 3.00238358 0.8125 4.3125 C0.55726562 5.04339844 0.30203125 5.77429687 0.0390625 6.52734375 C-0.8125 8.375 -0.8125 8.375 -2.8125 9.375 C-3.1425 8.055 -3.4725 6.735 -3.8125 5.375 C-5.2975 7.85 -5.2975 7.85 -6.8125 10.375 C-7.625 8.75 -7.625 8.75 -7.8125 6.375 C-3.99227528 0.53230337 -3.99227528 0.53230337 0 0 Z " fill="#EEF0E9" transform="translate(98.8125,37.625)"/>
<path d="M0 0 C0.99 0 1.98 0 3 0 C3.29296875 6.0546875 3.29296875 6.0546875 3 8 C-0.4352048 10.29013653 -1.985331 10.17842973 -6 10 C-5.505 9.608125 -5.01 9.21625 -4.5 8.8125 C-2.54406857 6.44908285 -2.75792027 4.98564997 -3 2 C-2.34 2 -1.68 2 -1 2 C-1 3.65 -1 5.3 -1 7 C-0.34 7 0.32 7 1 7 C0.67 4.69 0.34 2.38 0 0 Z " fill="#406564" transform="translate(129,15)"/>
<path d="M0 0 C1.4540625 0.0309375 1.4540625 0.0309375 2.9375 0.0625 C2.9375 2.0425 2.9375 4.0225 2.9375 6.0625 C0.9575 6.0625 -1.0225 6.0625 -3.0625 6.0625 C-3.44468767 4.40635343 -3.77645102 2.73792976 -4.0625 1.0625 C-3.0625 0.0625 -3.0625 0.0625 0 0 Z " fill="#EDCE7D" transform="translate(87.0625,71.9375)"/>
<path d="M0 0 C1.49341969 2.98683937 0.40648676 4.95160978 -0.4375 8.125 C-0.72496094 9.22070312 -1.01242188 10.31640625 -1.30859375 11.4453125 C-1.65083984 12.70988281 -1.65083984 12.70988281 -2 14 C-3.32 14.33 -4.64 14.66 -6 15 C-4.99667352 9.05925113 -3.69087294 4.79813482 0 0 Z " fill="#EEF0C0" transform="translate(89,44)"/>
<path d="M0 0 C0.66 0.33 1.32 0.66 2 1 C2 1.66 2 2.32 2 3 C1.360625 3.28875 0.72125 3.5775 0.0625 3.875 C-2.15206079 4.82823451 -2.15206079 4.82823451 -3 7 C-3.66 7 -4.32 7 -5 7 C-5.33 8.32 -5.66 9.64 -6 11 C-7.32 10.67 -8.64 10.34 -10 10 C-6.671875 3.34375 -6.671875 3.34375 -3.3125 1.625 C-2.549375 1.41875 -1.78625 1.2125 -1 1 C-0.67 0.67 -0.34 0.34 0 0 Z " fill="#F0E9B9" transform="translate(113,46)"/>
<path d="M0 0 C0.33 0.66 0.66 1.32 1 2 C1.99 2 2.98 2 4 2 C3.38722388 4.96175123 2.74627478 6.38058783 1 9 C0.34 9 -0.32 9 -1 9 C-1 8.34 -1 7.68 -1 7 C-1.99 7 -2.98 7 -4 7 C-2.79618552 4.50638429 -1.54571278 2.31856917 0 0 Z " fill="#93A85F" transform="translate(161,26)"/>
<path d="M0 0 C0.33 0.99 0.66 1.98 1 3 C1.66 3 2.32 3 3 3 C2.34 4.65 1.68 6.3 1 8 C-0.65 8 -2.3 8 -4 8 C-4 6.68 -4 5.36 -4 4 C-3.01 3.67 -2.02 3.34 -1 3 C-0.67 2.01 -0.34 1.02 0 0 Z " fill="#F3F063" transform="translate(96,51)"/>
<path d="M0 0 C0.33 0.66 0.66 1.32 1 2 C1.928125 1.773125 2.85625 1.54625 3.8125 1.3125 C7 1 7 1 8.875 2.4375 C9.431875 3.2109375 9.431875 3.2109375 10 4 C9.34 4.66 8.68 5.32 8 6 C4.81180248 5.66083005 2.04218951 5.01406317 -1 4 C-0.67 2.68 -0.34 1.36 0 0 Z " fill="#E1E8F1" transform="translate(113,32)"/>
<path d="M0 0 C0.33 0 0.66 0 1 0 C1.16868683 4.38585753 1.05053352 7.15524966 -1 11 C-1.16750414 13.66709069 -1.16750414 13.66709069 -1 16 C-2.65 15.67 -4.3 15.34 -6 15 C-4.02 10.05 -2.04 5.1 0 0 Z " fill="#47ACE1" transform="translate(160,74)"/>
<path d="M0 0 C0.33 0 0.66 0 1 0 C1.33 3.3 1.66 6.6 2 10 C3.423125 9.79375 4.84625 9.5875 6.3125 9.375 C10.09256343 8.82716472 10.64672361 8.76448241 14 11 C11.37670316 12.31164842 9.36301375 12.13262846 6.4375 12.125 C5.44621094 12.12757812 4.45492187 12.13015625 3.43359375 12.1328125 C1 12 1 12 0 11 C-0.07226502 9.14712498 -0.0838122 7.29166122 -0.0625 5.4375 C-0.05347656 4.42558594 -0.04445313 3.41367188 -0.03515625 2.37109375 C-0.02355469 1.58863281 -0.01195313 0.80617188 0 0 Z " fill="#CF8D51" transform="translate(80,70)"/>
<path d="M0 0 C12.03438713 -0.56905158 12.03438713 -0.56905158 16 3 C16.33 3.99 16.66 4.98 17 6 C13 6 13 6 10.75 4.0625 C7.0728811 1.30466082 4.53803889 1.30766365 0 1 C0 0.67 0 0.34 0 0 Z " fill="#F5F186" transform="translate(82,61)"/>
<path d="M0 0 C-1.01176437 3.40320742 -1.64843582 4.75725331 -4.625 6.8125 C-5.40875 7.204375 -6.1925 7.59625 -7 8 C-8 6 -8 6 -8 2 C-5.09399739 0.74335022 -3.20395416 0 0 0 Z " fill="#D2DED1" transform="translate(113,29)"/>
<path d="M0 0 C1.69752187 0.25245197 3.38471545 0.57645775 5.0625 0.9375 C5.98160156 1.13214844 6.90070313 1.32679687 7.84765625 1.52734375 C8.91306641 1.76130859 8.91306641 1.76130859 10 2 C9.67 2.99 9.34 3.98 9 5 C7.68 5 6.36 5 5 5 C5 4.34 5 3.68 5 3 C2.36 3.66 -0.28 4.32 -3 5 C-1.125 1.125 -1.125 1.125 0 0 Z " fill="#E3C79E" transform="translate(136,74)"/>
<path d="M0 0 C0.99 0.33 1.98 0.66 3 1 C3 2.98 3 4.96 3 7 C1.02 7 -0.96 7 -3 7 C-2.25 2.25 -2.25 2.25 0 0 Z " fill="#ABB955" transform="translate(140,17)"/>
<path d="M0 0 C0.33 0.66 0.66 1.32 1 2 C4.02934491 2.65772428 4.02934491 2.65772428 7 3 C5.68 4.65 4.36 6.3 3 8 C0.525 7.01 0.525 7.01 -2 6 C-1.34 4.02 -0.68 2.04 0 0 Z " fill="#92BBD8" transform="translate(136,93)"/>
<path d="M0 0 C1.1577506 3.47325181 1.06866652 6.36067448 1 10 C1.99 9.67 2.98 9.34 4 9 C3.34 11.31 2.68 13.62 2 16 C1.34 16 0.68 16 0 16 C-1.36538938 13.26922124 -1.13231826 11.04439633 -1.125 8 C-1.12757812 6.9275 -1.13015625 5.855 -1.1328125 4.75 C-1 2 -1 2 0 0 Z " fill="#943E44" transform="translate(123,82)"/>
<path d="M0 0 C0.66 0 1.32 0 2 0 C2.05399736 1.45792884 2.09279177 2.91642712 2.125 4.375 C2.14820313 5.18710938 2.17140625 5.99921875 2.1953125 6.8359375 C2 9 2 9 0 11 C-2 8 -2 8 -3 6 C-2.06553465 3.96855359 -1.06775224 1.96466413 0 0 Z " fill="#86313E" transform="translate(126,75)"/>
<path d="M0 0 C0.66 0 1.32 0 2 0 C0.7874262 3.72433382 -0.50859979 7.37802806 -2 11 C-2.66 11 -3.32 11 -4 11 C-4.33 9.02 -4.66 7.04 -5 5 C-4.360625 4.731875 -3.72125 4.46375 -3.0625 4.1875 C-0.66868314 3.11332248 -0.66868314 3.11332248 0 0 Z " fill="#832E3B" transform="translate(125,68)"/>
<path d="M0 0 C5 3 5 3 6.3125 6.1875 C6.539375 7.115625 6.76625 8.04375 7 9 C6.34 9 5.68 9 5 9 C4.67 8.67 4.34 8.34 4 8 C3.67 9.32 3.34 10.64 3 12 C2.01 8.04 1.02 4.08 0 0 Z " fill="#3DADC2" transform="translate(161,45)"/>
<path d="M0 0 C0.33 0 0.66 0 1 0 C1.19622241 4.21878192 0.80230168 7.17010894 -1 11 C-1.66 10.67 -2.32 10.34 -3 10 C-3.66 11.98 -4.32 13.96 -5 16 C-5.66 15.67 -6.32 15.34 -7 15 C-6.57692877 13.68277821 -6.13602514 12.37127336 -5.6875 11.0625 C-5.44386719 10.33160156 -5.20023437 9.60070312 -4.94921875 8.84765625 C-4 7 -4 7 -1 6 C-0.67 4.02 -0.34 2.04 0 0 Z " fill="#B05649" transform="translate(116,90)"/>
<path d="M0 0 C0.66 0.33 1.32 0.66 2 1 C2.4140625 3.28515625 2.4140625 3.28515625 2.625 6.0625 C2.69976562 6.98160156 2.77453125 7.90070312 2.8515625 8.84765625 C2.90054688 9.55792969 2.94953125 10.26820312 3 11 C2.01 11.495 2.01 11.495 1 12 C0.566875 10.6078125 0.566875 10.6078125 0.125 9.1875 C-0.8875 5.90208333 -0.8875 5.90208333 -3 3 C-2.01 2.01 -1.02 1.02 0 0 Z " fill="#99C4E9" transform="translate(150,44)"/>
<path d="M0 0 C1.65 0 3.3 0 5 0 C5 0.66 5 1.32 5 2 C5.66 2 6.32 2 7 2 C7 2.66 7 3.32 7 4 C7.66 4.33 8.32 4.66 9 5 C8.01 5 7.02 5 6 5 C6 5.99 6 6.98 6 8 C5.01 7.67 4.02 7.34 3 7 C3 5.68 3 4.36 3 3 C2.01 2.67 1.02 2.34 0 2 C0 1.34 0 0.68 0 0 Z " fill="#B1C05D" transform="translate(90,25)"/>
<path d="M0 0 C0.99 0 1.98 0 3 0 C5.48063781 9.41002278 5.48063781 9.41002278 4 14 C3.67 13.34 3.34 12.68 3 12 C2.34 12 1.68 12 1 12 C1.33 8.37 1.66 4.74 2 1 C1.34 0.67 0.68 0.34 0 0 Z " fill="#8A464E" transform="translate(134,78)"/>
<path d="M0 0 C0.515625 0.309375 1.03125 0.61875 1.5625 0.9375 C4.66665423 2.29059287 7.65115007 2.61359424 11 3 C11 3.33 11 3.66 11 4 C8.03 4 5.06 4 2 4 C2.33 4.99 2.66 5.98 3 7 C2.34 7.66 1.68 8.32 1 9 C0.34 8.67 -0.32 8.34 -1 8 C-0.67 5.36 -0.34 2.72 0 0 Z " fill="#A66D4A" transform="translate(127,65)"/>
<path d="M0 0 C2.91517292 1.07401108 4.77810176 1.77810176 7 4 C9.60280568 3.67958603 9.60280568 3.67958603 12 3 C11.34 4.32 10.68 5.64 10 7 C7.03 6.505 7.03 6.505 4 6 C4 5.34 4 4.68 4 4 C2.68 3.67 1.36 3.34 0 3 C0 2.01 0 1.02 0 0 Z " fill="#C1D8EA" transform="translate(129,31)"/>
<path d="M0 0 C-1.32 1.65 -2.64 3.3 -4 5 C-6.97 4.01 -9.94 3.02 -13 2 C-13 1.67 -13 1.34 -13 1 C-8.61414671 0.29826347 -4.44209357 -0.10834375 0 0 Z " fill="#B9D3EA" transform="translate(130,28)"/>
<path d="M0 0 C0.33 0.66 0.66 1.32 1 2 C3.31 2 5.62 2 8 2 C7.01 2.33 6.02 2.66 5 3 C4.26676204 5.01508358 4.26676204 5.01508358 4 7 C2.35 6.67 0.7 6.34 -1 6 C-0.67 4.02 -0.34 2.04 0 0 Z " fill="#A9C2D6" transform="translate(138,87)"/>
<path d="M0 0 C4.37497558 3.46980822 5.72097863 7.7385712 7 13 C7 13.99 7 14.98 7 16 C6.20602761 14.75146327 5.41492783 13.50109957 4.625 12.25 C3.96371094 11.20585938 3.96371094 11.20585938 3.2890625 10.140625 C1.00581467 6.34904981 0 4.56880402 0 0 Z " fill="#D9C76A" transform="translate(81,86)"/>
<path d="M0 0 C0 0.99 0 1.98 0 3 C-4.00200378 4.60080151 -7.04556236 3.29279692 -11 2 C-7.39759636 -1.60240364 -4.69302684 -0.93860537 0 0 Z " fill="#EEE5C5" transform="translate(150,60)"/>
<path d="M0 0 C3.79450934 0.39253545 5.51015791 2.24338912 8 5 C7.67 5.66 7.34 6.32 7 7 C5.35 5.68 3.7 4.36 2 3 C2 3.99 2 4.98 2 6 C0.68 5.67 -0.64 5.34 -2 5 C-1.125 1.125 -1.125 1.125 0 0 Z " fill="#75BBC4" transform="translate(156,40)"/>
<path d="M0 0 C0.66 0 1.32 0 2 0 C0.33784287 3.60134046 -1.56224165 6.86573927 -4 10 C-6.75 10.875 -6.75 10.875 -9 11 C-8.60167969 10.54109375 -8.20335938 10.0821875 -7.79296875 9.609375 C-4.39984291 5.68325173 -4.39984291 5.68325173 -1.25 1.5625 C-0.8375 1.046875 -0.425 0.53125 0 0 Z " fill="#F2EF9B" transform="translate(123,35)"/>
<path d="M0 0 C0.33 1.32 0.66 2.64 1 4 C2.258125 3.938125 3.51625 3.87625 4.8125 3.8125 C8.72231986 3.79173989 8.72231986 3.79173989 11 5.5 C11.495 6.2425 11.495 6.2425 12 7 C10.046875 6.73958333 8.09375 6.47916667 6.140625 6.21875 C3.69541605 5.93222643 3.69541605 5.93222643 0 6 C-0.33 6.99 -0.66 7.98 -1 9 C-0.67 6.03 -0.34 3.06 0 0 Z " fill="#E7E764" transform="translate(81,58)"/>
<path d="M0 0 C0.99 0.33 1.98 0.66 3 1 C1.87926138 1.83905565 0.75325453 2.67107831 -0.375 3.5 C-1.31472656 4.19609375 -1.31472656 4.19609375 -2.2734375 4.90625 C-4 6 -4 6 -6 6 C-6.33 6.66 -6.66 7.32 -7 8 C-8.32 7.34 -9.64 6.68 -11 6 C-10.113125 5.566875 -9.22625 5.13375 -8.3125 4.6875 C-5.04295143 3.09546924 -5.04295143 3.09546924 -2.3125 1.25 C-1.549375 0.8375 -0.78625 0.425 0 0 Z " fill="#E5E8BA" transform="translate(144,46)"/>
<path d="M0 0 C1.32 0 2.64 0 4 0 C4.12375 0.804375 4.2475 1.60875 4.375 2.4375 C4.684375 3.7059375 4.684375 3.7059375 5 5 C5.66 5.33 6.32 5.66 7 6 C5.02 6.33 3.04 6.66 1 7 C0.67 4.69 0.34 2.38 0 0 Z " fill="#F4F4F3" transform="translate(131,45)"/>
<path d="M0 0 C3.875 1.75 3.875 1.75 5 4 C1.37 6.31 -2.26 8.62 -6 11 C-6.66 10.34 -7.32 9.68 -8 9 C-5.03 7.35 -2.06 5.7 1 4 C0.67 2.68 0.34 1.36 0 0 Z " fill="#BAD9C6" transform="translate(153,36)"/>
<path d="M0 0 C0.66 0 1.32 0 2 0 C0.58832253 5.26170694 -1.74850232 8.72171358 -5 13 C-5.33 12.34 -5.66 11.68 -6 11 C-4.78515625 8.3984375 -4.78515625 8.3984375 -3.0625 5.375 C-2.21365234 3.87066406 -2.21365234 3.87066406 -1.34765625 2.3359375 C-0.90292969 1.56507812 -0.45820312 0.79421875 0 0 Z " fill="#C1624E" transform="translate(106,79)"/>
<path d="M0 0 C0.66 0.33 1.32 0.66 2 1 C2 1.66 2 2.32 2 3 C2.66 3.33 3.32 3.66 4 4 C4 3.34 4 2.68 4 2 C5.9375 2.375 5.9375 2.375 8 3 C8.33 3.66 8.66 4.32 9 5 C6.03 5.66 3.06 6.32 0 7 C0 4.66666667 0 2.33333333 0 0 Z " fill="#3C6368" transform="translate(72,45)"/>
<path d="M0 0 C1.32 0.33 2.64 0.66 4 1 C4.12375 2.134375 4.2475 3.26875 4.375 4.4375 C4.684375 6.2009375 4.684375 6.2009375 5 8 C5.66 8.33 6.32 8.66 7 9 C5.68 9.33 4.36 9.66 3 10 C2.01 6.7 1.02 3.4 0 0 Z " fill="#9AC5EA" transform="translate(142,35)"/>
<path d="M0 0 C2.46800047 1.15173355 4.04783565 2.04783565 6 4 C3.09399739 5.25664978 1.20395416 6 -2 6 C-1.34 4.02 -0.68 2.04 0 0 Z " fill="#92A655" transform="translate(91,115)"/>
<path d="M0 0 C1.14926266 0.95421808 2.29430541 1.91352045 3.4375 2.875 C4.07558594 3.40867187 4.71367188 3.94234375 5.37109375 4.4921875 C7 6 7 6 8 8 C5.2980567 7.63487253 3.41609148 7.30130763 1.1875 5.6875 C0 4 0 4 0 0 Z " fill="#818165" transform="translate(76,117)"/>
<path d="M0 0 C-0.33 1.98 -0.66 3.96 -1 6 C-1.99 6.33 -2.98 6.66 -4 7 C-5 6 -5 6 -5.0625 3.4375 C-5.041875 2.633125 -5.02125 1.82875 -5 1 C-3 0 -3 0 0 0 Z " fill="#7F975E" transform="translate(75,84)"/>
<path d="M0 0 C-0.49230769 5.53846154 -0.49230769 5.53846154 -3.0625 7.875 C-4.0215625 8.431875 -4.0215625 8.431875 -5 9 C-4.4140625 2.84765625 -4.4140625 2.84765625 -4 1 C-2 0 -2 0 0 0 Z " fill="#822E3D" transform="translate(121,64)"/>
<path d="M0 0 C0.99 0.495 0.99 0.495 2 1 C2 1.66 2 2.32 2 3 C2.66 3 3.32 3 4 3 C4.66 5.31 5.32 7.62 6 10 C3.525 9.01 3.525 9.01 1 8 C0.67 5.36 0.34 2.72 0 0 Z " fill="#14A3D4" transform="translate(164,51)"/>
<path d="M0 0 C-1.32 0 -2.64 0 -4 0 C-4 0.99 -4 1.98 -4 3 C-3.34 3 -2.68 3 -2 3 C-2 3.66 -2 4.32 -2 5 C-4.49361571 3.79618552 -6.68143083 2.54571278 -9 1 C-8 -1 -8 -1 -6.1875 -1.75 C-3.50171361 -2.05694702 -2.2747813 -1.38111722 0 0 Z " fill="#B1C05F" transform="translate(80,52)"/>
<path d="M0 0 C0.33 1.65 0.66 3.3 1 5 C-0.32 4.67 -1.64 4.34 -3 4 C-3 4.66 -3 5.32 -3 6 C-3.66 6 -4.32 6 -5 6 C-5.33 4.35 -5.66 2.7 -6 1 C-3.92446352 0.4465236 -2.15634036 0 0 0 Z " fill="#C7D14E" transform="translate(141,126)"/>
<path d="M0 0 C1.98 0.495 1.98 0.495 4 1 C4 2.32 4 3.64 4 5 C3.01 5.33 2.02 5.66 1 6 C0.34 5.34 -0.32 4.68 -1 4 C-0.625 1.875 -0.625 1.875 0 0 Z " fill="#C3CB4A" transform="translate(157,117)"/>
<path d="M0 0 C3.49844386 0.63389235 5.84086876 2.05177694 8.75 4.0625 C9.94882813 4.88427734 9.94882813 4.88427734 11.171875 5.72265625 C12.07679688 6.35494141 12.07679688 6.35494141 13 7 C12.01 7.495 12.01 7.495 11 8 C8.65234375 7.109375 8.65234375 7.109375 5.9375 5.75 C5.03902344 5.31171875 4.14054688 4.8734375 3.21484375 4.421875 C1 3 1 3 0 0 Z " fill="#C0E1B7" transform="translate(133,99)"/>
<path d="M0 0 C0.99 0 1.98 0 3 0 C2.71758359 1.46015291 2.42373386 2.91809793 2.125 4.375 C1.96257812 5.18710938 1.80015625 5.99921875 1.6328125 6.8359375 C1 9 1 9 -1 11 C-2.60080151 6.99799622 -1.29279692 3.95443764 0 0 Z " fill="#CFC7D1" transform="translate(195,88)"/>
<path d="M0 0 C2.0625 0.4375 2.0625 0.4375 4 1 C3.6875 2.875 3.6875 2.875 3 5 C2.01 5.66 1.02 6.32 0 7 C0 6.01 0 5.02 0 4 C-0.99 4.495 -0.99 4.495 -2 5 C-1.125 1.125 -1.125 1.125 0 0 Z " fill="#903940" transform="translate(106,88)"/>
<path d="M0 0 C0.99 0 1.98 0 3 0 C3.33 0.99 3.66 1.98 4 3 C4.66 3.66 5.32 4.32 6 5 C5.01 5 4.02 5 3 5 C3.33 6.32 3.66 7.64 4 9 C3.01 8.67 2.02 8.34 1 8 C0.67 5.36 0.34 2.72 0 0 Z " fill="#D2DDED" transform="translate(137,78)"/>
<path d="M0 0 C0.66 0.33 1.32 0.66 2 1 C0.35 3.64 -1.3 6.28 -3 9 C-3.66 8.67 -4.32 8.34 -5 8 C-4.64950425 4.75791433 -4.43778819 3.38472296 -1.9375 1.1875 C-1.298125 0.795625 -0.65875 0.40375 0 0 Z " fill="#7E2E31" transform="translate(97,78)"/>
<path d="M0 0 C1.48117801 0.28127421 2.95993249 0.57533732 4.4375 0.875 C5.67306641 1.11863281 5.67306641 1.11863281 6.93359375 1.3671875 C7.61550781 1.57601562 8.29742187 1.78484375 9 2 C9.33 2.66 9.66 3.32 10 4 C7.03 3.505 7.03 3.505 4 3 C3.67 4.32 3.34 5.64 3 7 C2.67 6.01 2.34 5.02 2 4 C1.01 3.34 0.02 2.68 -1 2 C-0.67 1.34 -0.34 0.68 0 0 Z " fill="#8ABED3" transform="translate(143,32)"/>
<path d="M0 0 C2.475 0.99 2.475 0.99 5 2 C4 4 3 6 2 8 C1.01 7.34 0.02 6.68 -1 6 C-0.67 4.02 -0.34 2.04 0 0 Z " fill="#2E97C5" transform="translate(132,109)"/>
<path d="M0 0 C1.32 0.66 2.64 1.32 4 2 C4 2.66 4 3.32 4 4 C3.01 4.495 3.01 4.495 2 5 C2 5.66 2 6.32 2 7 C0.68 6.34 -0.64 5.68 -2 5 C-2 2 -2 2 0 0 Z " fill="#C7D04D" transform="translate(168,107)"/>
<path d="M0 0 C0.99 0.33 1.98 0.66 3 1 C2.45276317 4.37462715 1.9451 6.08235 0 9 C-0.99 8.34 -1.98 7.68 -3 7 C-2.505 6.21625 -2.01 5.4325 -1.5 4.625 C0.16537965 2.21447673 0.16537965 2.21447673 0 0 Z " fill="#A14743" transform="translate(110,69)"/>
<path d="M0 0 C0.99 0.33 1.98 0.66 3 1 C3.66 0.67 4.32 0.34 5 0 C5.33 1.65 5.66 3.3 6 5 C5.01 4.67 4.02 4.34 3 4 C2.67 5.32 2.34 6.64 2 8 C-0.1519437 4.77208445 -0.20086443 3.71599191 0 0 Z " fill="#9A4342" transform="translate(122,64)"/>
<path d="M0 0 C0.66 0 1.32 0 2 0 C4.1385485 2.1385485 4.42655063 3.13275314 5 6 C4.01 6 3.02 6 2 6 C2 5.34 2 4.68 2 4 C1.01 4.33 0.02 4.66 -1 5 C-0.67 3.35 -0.34 1.7 0 0 Z " fill="#CBD34A" transform="translate(106,124)"/>
<path d="M0 0 C0.66 0.33 1.32 0.66 2 1 C-0.31 3.97 -2.62 6.94 -5 10 C-5.33 9.34 -5.66 8.68 -6 8 C-4.75 4.4375 -4.75 4.4375 -3 1 C-2.01 0.67 -1.02 0.34 0 0 Z " fill="#7A2635" transform="translate(107,68)"/>
<path d="M0 0 C-1.0625 1.5625 -1.0625 1.5625 -3 3 C-6.6875 2.6875 -6.6875 2.6875 -10 2 C-6.80505194 -1.19494806 -4.22040044 -1.35655728 0 0 Z " fill="#C6AF92" transform="translate(147,64)"/>
<path d="M0 0 C0.66 0.99 1.32 1.98 2 3 C-2.67209049 4.43023178 -7.13103697 5.40380045 -12 6 C-12 5.34 -12 4.68 -12 4 C-10.37548581 3.66430703 -8.75037083 3.3315204 -7.125 3 C-6.22007813 2.814375 -5.31515625 2.62875 -4.3828125 2.4375 C-2 2 -2 2 0 2 C0 1.34 0 0.68 0 0 Z " fill="#9C4344" transform="translate(127,48)"/>
<path d="M0 0 C0.66 0 1.32 0 2 0 C2 1.98 2 3.96 2 6 C0.02 6.99 0.02 6.99 -2 8 C-1.67 7.01 -1.34 6.02 -1 5 C-1.99 5 -2.98 5 -4 5 C-3.67 4.01 -3.34 3.02 -3 2 C-2.01 2 -1.02 2 0 2 C0 1.34 0 0.68 0 0 Z " fill="#BBC860" transform="translate(169,34)"/>
<path d="M0 0 C2.375 0.25 2.375 0.25 5 1 C6.3125 3.0625 6.3125 3.0625 7 5 C6.01 4.67 5.02 4.34 4 4 C4 3.34 4 2.68 4 2 C3.34 2 2.68 2 2 2 C2.33 3.32 2.66 4.64 3 6 C2.01 5.34 1.02 4.68 0 4 C0 2.68 0 1.36 0 0 Z " fill="#BDCA5E" transform="translate(83,33)"/>
<path d="M0 0 C3.875 1.75 3.875 1.75 5 4 C3.02 4.66 1.04 5.32 -1 6 C-1.042721 4.33388095 -1.04063832 2.66617115 -1 1 C-0.67 0.67 -0.34 0.34 0 0 Z " fill="#C0CB4F" transform="translate(144,124)"/>
<path d="M0 0 C1.98 0.495 1.98 0.495 4 1 C3.67 2.65 3.34 4.3 3 6 C1.68 5.67 0.36 5.34 -1 5 C-0.67 3.35 -0.34 1.7 0 0 Z " fill="#B8C356" transform="translate(176,93)"/>
<path d="M0 0 C1.485 0.99 1.485 0.99 3 2 C3.1875 4.625 3.1875 4.625 3 7 C3.66 7.33 4.32 7.66 5 8 C3.35 8 1.7 8 0 8 C0 5.36 0 2.72 0 0 Z " fill="#D4995C" transform="translate(129,69)"/>
<path d="M0 0 C0.99 0 1.98 0 3 0 C3.33 0.99 3.66 1.98 4 3 C2.35 4.32 0.7 5.64 -1 7 C-2 4 -2 4 -1.0625 1.8125 C-0.5365625 0.9153125 -0.5365625 0.9153125 0 0 Z " fill="#8B373D" transform="translate(98,67)"/>
<path d="M0 0 C3.63 1.32 7.26 2.64 11 4 C10.67 4.66 10.34 5.32 10 6 C6.27566618 4.7874262 2.62197194 3.49140021 -1 2 C-0.67 1.34 -0.34 0.68 0 0 Z " fill="#F8F6B0" transform="translate(89,58)"/>
<path d="M0 0 C1.9375 1.0625 1.9375 1.0625 4 3 C4.75 6.6875 4.75 6.6875 5 10 C4.67 9.34 4.34 8.68 4 8 C3.34 8 2.68 8 2 8 C1.34 5.36 0.68 2.72 0 0 Z " fill="#3FAAE1" transform="translate(157,41)"/>
<path d="M0 0 C0 0.99 0 1.98 0 3 C0.31421071 5.00309329 0.6451046 7.00371336 1 9 C-0.32 9 -1.64 9 -3 9 C-3.36923077 3.46153846 -3.36923077 3.46153846 -1.5 1.125 C-1.005 0.75375 -0.51 0.3825 0 0 Z " fill="#E5EBE7" transform="translate(127,31)"/>
<path d="M0 0 C0.66 0.33 1.32 0.66 2 1 C-0.81070808 5.21606212 -4.5572744 6.79754241 -9 9 C-8.06725891 7.87105124 -7.12859878 6.74699124 -6.1875 5.625 C-5.66542969 4.99851562 -5.14335938 4.37203125 -4.60546875 3.7265625 C-3 2 -3 2 0 0 Z " fill="#8B9D74" transform="translate(88,20)"/>
<path d="M0 0 C0 0.99 0 1.98 0 3 C0.66 3 1.32 3 2 3 C2 3.66 2 4.32 2 5 C0.35 5.33 -1.3 5.66 -3 6 C-2.67 4.68 -2.34 3.36 -2 2 C-2.99 2.33 -3.98 2.66 -5 3 C-5 2.34 -5 1.68 -5 1 C-3 0 -3 0 0 0 Z " fill="#D3DC52" transform="translate(80,100)"/>
<path d="M0 0 C2 3.75 2 3.75 2 6 C2.66 6.33 3.32 6.66 4 7 C3.01 7.66 2.02 8.32 1 9 C0.34 8.34 -0.32 7.68 -1 7 C-0.625 3.375 -0.625 3.375 0 0 Z " fill="#832F37" transform="translate(113,98)"/>
<path d="M0 0 C-1.65 1.32 -3.3 2.64 -5 4 C-7.475 3.01 -7.475 3.01 -10 2 C-5.86678317 -0.75547789 -4.77928863 -1.13193678 0 0 Z " fill="#974D47" transform="translate(124,45)"/>
<path d="M0 0 C0.99 0.33 1.98 0.66 3 1 C1.7260411 3.03833424 0.38938077 5.03852126 -1 7 C-1.66 7 -2.32 7 -3 7 C-2.625 4.0625 -2.625 4.0625 -2 1 C-1.34 0.67 -0.68 0.34 0 0 Z " fill="#F1F2EA" transform="translate(106,36)"/>
<path d="M0 0 C1.65 0.33 3.3 0.66 5 1 C4.67 2.98 4.34 4.96 4 7 C3.34 7 2.68 7 2 7 C1.67 6.34 1.34 5.68 1 5 C0.34 5 -0.32 5 -1 5 C-0.67 3.35 -0.34 1.7 0 0 Z " fill="#C3CE5A" transform="translate(105,18)"/>
<path d="M0 0 C1.4800841 0.11362262 2.95910074 0.24122908 4.4375 0.375 C5.26121094 0.44460938 6.08492187 0.51421875 6.93359375 0.5859375 C7.95646484 0.79089844 7.95646484 0.79089844 9 1 C9.33 1.66 9.66 2.32 10 3 C7.69 3.33 5.38 3.66 3 4 C3 3.34 3 2.68 3 2 C2.01 1.67 1.02 1.34 0 1 C0 0.67 0 0.34 0 0 Z " fill="#34607B" transform="translate(127,11)"/>
<path d="M0 0 C0.99 0 1.98 0 3 0 C3.33 0.99 3.66 1.98 4 3 C4 2.01 4 1.02 4 0 C4.66 0 5.32 0 6 0 C5.67 1.32 5.34 2.64 5 4 C3.02 4 1.04 4 -1 4 C-0.67 2.68 -0.34 1.36 0 0 Z " fill="#69824C" transform="translate(130,129)"/>
<path d="M0 0 C0.33 0.66 0.66 1.32 1 2 C1.66 2 2.32 2 3 2 C3 2.99 3 3.98 3 5 C3.66 5 4.32 5 5 5 C5.33 4.01 5.66 3.02 6 2 C6 3.32 6 4.64 6 6 C3.69 6 1.38 6 -1 6 C-0.67 4.02 -0.34 2.04 0 0 Z " fill="#4B6C5C" transform="translate(117,127)"/>
<path d="M0 0 C1.65 0.33 3.3 0.66 5 1 C5 2.32 5 3.64 5 5 C4.34 4.67 3.68 4.34 3 4 C3.33 3.34 3.66 2.68 4 2 C3.01 2 2.02 2 1 2 C1 2.99 1 3.98 1 5 C0.34 5 -0.32 5 -1 5 C-0.67 3.35 -0.34 1.7 0 0 Z " fill="#C4D059" transform="translate(129,127)"/>
<path d="M0 0 C1.32 0.66 2.64 1.32 4 2 C3.01 2.495 3.01 2.495 2 3 C1.67 3.99 1.34 4.98 1 6 C0.01 5.67 -0.98 5.34 -2 5 C-1.34 3.35 -0.68 1.7 0 0 Z " fill="#9AAB54" transform="translate(99,120)"/>
<path d="M0 0 C0.66 0 1.32 0 2 0 C2.33 0.99 2.66 1.98 3 3 C1.68 3.99 0.36 4.98 -1 6 C-1.66 5.67 -2.32 5.34 -3 5 C-1.125 1.125 -1.125 1.125 0 0 Z " fill="#899E54" transform="translate(84,107)"/>
<path d="M0 0 C1.98 0 3.96 0 6 0 C4.8553125 0.8971875 4.8553125 0.8971875 3.6875 1.8125 C1.08664741 3.84004112 1.08664741 3.84004112 -0.6875 5.75 C-2 7 -2 7 -4 7 C-4 6.34 -4 5.68 -4 5 C-3.01 4.34 -2.02 3.68 -1 3 C-0.67 2.01 -0.34 1.02 0 0 Z " fill="#32A8D9" transform="translate(147,98)"/>
<path d="M0 0 C-0.625 1.9375 -0.625 1.9375 -2 4 C-5.125 4.75 -5.125 4.75 -8 5 C-3.375 0 -3.375 0 0 0 Z " fill="#E9E1C6" transform="translate(150,64)"/>
<path d="M0 0 C0.66 0.33 1.32 0.66 2 1 C2.144375 1.639375 2.28875 2.27875 2.4375 2.9375 C2.86165035 5.38210855 2.86165035 5.38210855 6 7 C3 8 3 8 0.8125 7.0625 C0.214375 6.711875 -0.38375 6.36125 -1 6 C-0.67 4.02 -0.34 2.04 0 0 Z " fill="#E2BA82" transform="translate(134,60)"/>
<path d="M0 0 C1.32 0.33 2.64 0.66 4 1 C4 1.99 4 2.98 4 4 C3.34 4 2.68 4 2 4 C1.67 4.99 1.34 5.98 1 7 C0 6 0 6 -0.0625 2.9375 C-0.041875 1.968125 -0.02125 0.99875 0 0 Z " fill="#401C41" transform="translate(117,58)"/>
<path d="M0 0 C0.33 0.99 0.66 1.98 1 3 C0 5 0 5 -1.9375 5.75 C-2.618125 5.8325 -3.29875 5.915 -4 6 C-4.66 5.34 -5.32 4.68 -6 4 C-4.02 2.68 -2.04 1.36 0 0 Z " fill="#D9E3C4" transform="translate(102,33)"/>
<path d="M0 0 C1.32 0 2.64 0 4 0 C4 0.66 4 1.32 4 2 C3.34 2 2.68 2 2 2 C2.33 3.98 2.66 5.96 3 8 C2.01 7.67 1.02 7.34 0 7 C0 4.69 0 2.38 0 0 Z " fill="#AABA61" transform="translate(112,16)"/>
<path d="M0 0 C-0.33 0.99 -0.66 1.98 -1 3 C-1.99 3.33 -2.98 3.66 -4 4 C-4.33 3.34 -4.66 2.68 -5 2 C-7.01669827 0.86649466 -7.01669827 0.86649466 -9 0 C-5.67465243 -1.10844919 -3.37817425 -0.84454356 0 0 Z " fill="#355E6E" transform="translate(158,19)"/>
<path d="M0 0 C2.97 0.495 2.97 0.495 6 1 C6 1.66 6 2.32 6 3 C5.01 3.33 4.02 3.66 3 4 C2.34 4.66 1.68 5.32 1 6 C0.67 4.02 0.34 2.04 0 0 Z " fill="#CDD550" transform="translate(162,113)"/>
<path d="M0 0 C-0.25 1.875 -0.25 1.875 -1 4 C-3.0625 5.25 -3.0625 5.25 -5 6 C-5.33 5.01 -5.66 4.02 -6 3 C-2.25 0 -2.25 0 0 0 Z " fill="#4EAEE2" transform="translate(147,98)"/>
<path d="M0 0 C0.99 0 1.98 0 3 0 C2.49396008 2.16874252 2.00016187 3.99967627 1 6 C-0.32 5.34 -1.64 4.68 -3 4 C-2.34 4 -1.68 4 -1 4 C-0.67 2.68 -0.34 1.36 0 0 Z " fill="#40AADD" transform="translate(152,91)"/>
<path d="M0 0 C0.25 2.25 0.25 2.25 0 5 C-2 7.3125 -2 7.3125 -4 9 C-3.4140625 2.84765625 -3.4140625 2.84765625 -3 1 C-1 0 -1 0 0 0 Z " fill="#8C353C" transform="translate(120,89)"/>
<path d="M0 0 C0 4.38968456 -2.12805101 5.76905739 -5 9 C-5.33 7.68 -5.66 6.36 -6 5 C-4.02 3.35 -2.04 1.7 0 0 Z " fill="#A94D43" transform="translate(108,84)"/>
<path d="M0 0 C0.66 1.32 1.32 2.64 2 4 C0.35 5.32 -1.3 6.64 -3 8 C-3.33 7.01 -3.66 6.02 -4 5 C-2.0625 2.3125 -2.0625 2.3125 0 0 Z " fill="#9A4243" transform="translate(120,68)"/>
<path d="M0 0 C0.66 0 1.32 0 2 0 C1.35455571 3.48539917 -0.10134397 6.02819057 -2 9 C-2.66 8.67 -3.32 8.34 -4 8 C-3.67 6.68 -3.34 5.36 -3 4 C-2.34 4 -1.68 4 -1 4 C-0.67 2.68 -0.34 1.36 0 0 Z " fill="#853E4D" transform="translate(115,59)"/>
<path d="M0 0 C0.99 0.66 1.98 1.32 3 2 C2.67 2.66 2.34 3.32 2 4 C1.34 3.67 0.68 3.34 0 3 C0 3.66 0 4.32 0 5 C0.66 5.33 1.32 5.66 2 6 C1.01 6 0.02 6 -1 6 C-1 5.01 -1 4.02 -1 3 C-1.99 2.67 -2.98 2.34 -4 2 C-2.68 1.34 -1.36 0.68 0 0 Z " fill="#61454C" transform="translate(139,55)"/>
<path d="M0 0 C0.66 0 1.32 0 2 0 C2.28875 0.78375 2.5775 1.5675 2.875 2.375 C3.84912254 5.09671632 3.84912254 5.09671632 6 7 C3.03 6.505 3.03 6.505 0 6 C0 4.02 0 2.04 0 0 Z " fill="#CADCF3" transform="translate(143,51)"/>
<path d="M0 0 C1.65 0.99 3.3 1.98 5 3 C4.67 3.99 4.34 4.98 4 6 C3.01 6.33 2.02 6.66 1 7 C0.67 4.69 0.34 2.38 0 0 Z " fill="#6DB3DB" transform="translate(150,35)"/>
<path d="M0 0 C1.32 0.66 2.64 1.32 4 2 C3.34 3.98 2.68 5.96 2 8 C0.4375 6.25 0.4375 6.25 -1 4 C-0.6875 1.75 -0.6875 1.75 0 0 Z " fill="#4E6F5B" transform="translate(153,23)"/>
<path d="M0 0 C1.32 0.33 2.64 0.66 4 1 C4.33 2.32 4.66 3.64 5 5 C4.34 5 3.68 5 3 5 C2.34 5.66 1.68 6.32 1 7 C0 4 0 4 0 0 Z " fill="#496D68" transform="translate(158,22)"/>
<path d="M0 0 C0.99 0 1.98 0 3 0 C3 1.65 3 3.3 3 5 C1.35 4.67 -0.3 4.34 -2 4 C-1.34 2.68 -0.68 1.36 0 0 Z " fill="#CED64A" transform="translate(114,127)"/>
<path d="M0 0 C2.97 0.495 2.97 0.495 6 1 C2.25 3 2.25 3 0 3 C0 3.66 0 4.32 0 5 C-0.66 5 -1.32 5 -2 5 C-1.34 3.35 -0.68 1.7 0 0 Z " fill="#8DB9C9" transform="translate(133,102)"/>
<path d="M0 0 C1.98 0.495 1.98 0.495 4 1 C4.33 2.32 4.66 3.64 5 5 C2.5625 4.625 2.5625 4.625 0 4 C-0.33 3.34 -0.66 2.68 -1 2 C-0.67 1.34 -0.34 0.68 0 0 Z " fill="#8F756C" transform="translate(138,71)"/>
<path d="M0 0 C0.66 0 1.32 0 2 0 C0.66666667 3.33333333 -0.66666667 6.66666667 -2 10 C-2.6875 8.375 -2.6875 8.375 -3 6 C-1.5625 2.75 -1.5625 2.75 0 0 Z " fill="#701F2B" transform="translate(125,73)"/>
<path d="M0 0 C0.33 0.66 0.66 1.32 1 2 C1.66 2.33 2.32 2.66 3 3 C0.03 5.475 0.03 5.475 -3 8 C-2.37240135 5.07120629 -1.41377341 2.63904371 0 0 Z " fill="#F7F6D1" transform="translate(103,49)"/>
<path d="M0 0 C0.33 0 0.66 0 1 0 C1.33 2.97 1.66 5.94 2 9 C1.01 8.67 0.02 8.34 -1 8 C-1.04241723 5.66705225 -1.04092937 3.33297433 -1 1 C-0.67 0.67 -0.34 0.34 0 0 Z " fill="#A9CCEE" transform="translate(150,51)"/>
<path d="M0 0 C2.475 0.495 2.475 0.495 5 1 C5 1.99 5 2.98 5 4 C5.99 5.485 5.99 5.485 7 7 C5.35 6.67 3.7 6.34 2 6 C2 5.01 2 4.02 2 3 C1.34 3 0.68 3 0 3 C0 2.01 0 1.02 0 0 Z " fill="#597761" transform="translate(164,37)"/>
<path d="M0 0 C4.455 0.99 4.455 0.99 9 2 C8.01 3.485 8.01 3.485 7 5 C6.34 5 5.68 5 5 5 C5 4.01 5 3.02 5 2 C3.35 1.67 1.7 1.34 0 1 C0 0.67 0 0.34 0 0 Z " fill="#98C3E0" transform="translate(134,29)"/>
<path d="M0 0 C1.32 0 2.64 0 4 0 C3.6875 2.875 3.6875 2.875 3 6 C2.01 6.66 1.02 7.32 0 8 C0.185625 7.05125 0.37125 6.1025 0.5625 5.125 C1.28686632 2.10131207 1.28686632 2.10131207 0 0 Z " fill="#B0BF61" transform="translate(155,23)"/>
<path d="M0 0 C2 1.3125 2 1.3125 4 3 C4 3.99 4 4.98 4 6 C0.73045798 5.43628586 -0.82575883 4.50037734 -3 2 C-2.01 2 -1.02 2 0 2 C0 1.34 0 0.68 0 0 Z " fill="#5F7B53" transform="translate(161,114)"/>
<path d="M0 0 C2.63526912 5.17333569 2.63526912 5.17333569 3 8 C2.34 8.99 1.68 9.98 1 11 C-0.20272819 8.59454362 -0.10071472 7.05003047 -0.0625 4.375 C-0.05347656 3.55773437 -0.04445313 2.74046875 -0.03515625 1.8984375 C-0.02355469 1.27195312 -0.01195313 0.64546875 0 0 Z " fill="#934144" transform="translate(123,101)"/>
<path d="M0 0 C1.65 0 3.3 0 5 0 C4.01 0.495 4.01 0.495 3 1 C1.86649466 3.01669827 1.86649466 3.01669827 1 5 C0.01 4.67 -0.98 4.34 -2 4 C-1.34 2.68 -0.68 1.36 0 0 Z " fill="#1AA4DA" transform="translate(155,91)"/>
<path d="M0 0 C0.6875 1.75 0.6875 1.75 1 4 C-0.4375 6.25 -0.4375 6.25 -2 8 C-2.6875 6.25 -2.6875 6.25 -3 4 C-1.5625 1.75 -1.5625 1.75 0 0 Z " fill="#F5F3AB" transform="translate(101,40)"/>
<path d="M0 0 C0.66 0 1.32 0 2 0 C0.92598892 2.91517292 0.22189824 4.77810176 -2 7 C-2.33 6.01 -2.66 5.02 -3 4 C-1.6875 1.8125 -1.6875 1.8125 0 0 Z " fill="#F4F2AA" transform="translate(109,36)"/>
</svg>
